  0
SECTION
  2
HEADER
  9
$ACADVER
  1
AC1015
  9
$ACADMAINTVER
 70
     6
  9
$DWGCODEPAGE
  3
ANSI_1252
  9
$INSBASE
 10
0.0
 20
0.0
 30
0.0
  9
$EXTMIN
 10
0.0
 20
0.0
 30
0.0
  9
$EXTMAX
 10
520.15741
 20
748.951904
 30
2.0
  9
$LIMMIN
 10
0.0
 20
0.0
  9
$LIMMAX
 10
420.0
 20
297.0
  9
$ORTHOMODE
 70
     0
  9
$REGENMODE
 70
     1
  9
$FILLMODE
 70
     1
  9
$QTEXTMODE
 70
     0
  9
$MIRRTEXT
 70
     1
  9
$LTSCALE
 40
1.0
  9
$ATTMODE
 70
     1
  9
$TEXTSIZE
 40
2.5
  9
$TRACEWID
 40
1.0
  9
$TEXTSTYLE
  7
Standard
  9
$CLAYER
  8
0
  9
$CELTYPE
  6
ByLayer
  9
$CECOLOR
 62
   256
  9
$CELTSCALE
 40
1.0
  9
$DISPSILH
 70
     0
  9
$DIMSCALE
 40
1.0
  9
$DIMASZ
 40
2.5
  9
$DIMEXO
 40
0.625
  9
$DIMDLI
 40
3.75
  9
$DIMRND
 40
0.0
  9
$DIMDLE
 40
0.0
  9
$DIMEXE
 40
1.25
  9
$DIMTP
 40
0.0
  9
$DIMTM
 40
0.0
  9
$DIMTXT
 40
2.5
  9
$DIMCEN
 40
2.5
  9
$DIMTSZ
 40
0.0
  9
$DIMTOL
 70
     0
  9
$DIMLIM
 70
     0
  9
$DIMTIH
 70
     0
  9
$DIMTOH
 70
     0
  9
$DIMSE1
 70
     0
  9
$DIMSE2
 70
     0
  9
$DIMTAD
 70
     1
  9
$DIMZIN
 70
     8
  9
$DIMBLK
  1

  9
$DIMASO
 70
     1
  9
$DIMSHO
 70
     1
  9
$DIMPOST
  1

  9
$DIMAPOST
  1

  9
$DIMALT
 70
     0
  9
$DIMALTD
 70
     3
  9
$DIMALTF
 40
0.03937
  9
$DIMLFAC
 40
1.0
  9
$DIMTOFL
 70
     1
  9
$DIMTVP
 40
0.0
  9
$DIMTIX
 70
     0
  9
$DIMSOXD
 70
     0
  9
$DIMSAH
 70
     0
  9
$DIMBLK1
  1

  9
$DIMBLK2
  1

  9
$DIMSTYLE
  2

  9
$DIMCLRD
 70
     0
  9
$DIMCLRE
 70
     0
  9
$DIMCLRT
 70
     0
  9
$DIMTFAC
 40
1.0
  9
$DIMGAP
 40
0.625
  9
$DIMJUST
 70
     0
  9
$DIMSD1
 70
     0
  9
$DIMSD2
 70
     0
  9
$DIMTOLJ
 70
     0
  9
$DIMTZIN
 70
     8
  9
$DIMALTZ
 70
     0
  9
$DIMALTTZ
 70
     0
  9
$DIMUPT
 70
     0
  9
$DIMDEC
 70
     2
  9
$DIMTDEC
 70
     2
  9
$DIMALTU
 70
     2
  9
$DIMALTTD
 70
     3
  9
$DIMTXSTY
  7
Standard
  9
$DIMAUNIT
 70
     0
  9
$DIMADEC
 70
     0
  9
$DIMALTRND
 40
0.0
  9
$DIMAZIN
 70
     0
  9
$DIMDSEP
 70
    44
  9
$DIMATFIT
 70
     0
  9
$DIMFRAC
 70
     0
  9
$DIMLDRBLK
  1

  9
$DIMLUNIT
 70
     2
  9
$DIMLWD
 70
    -2
  9
$DIMLWE
 70
    -2
  9
$DIMTMOVE
 70
     0
  9
$LUNITS
 70
     2
  9
$LUPREC
 70
     4
  9
$SKETCHINC
 40
1.0
  9
$FILLETRAD
 40
2.5
  9
$AUNITS
 70
     0
  9
$AUPREC
 70
     0
  9
$MENU
  1
.
  9
$ELEVATION
 40
0.0
  9
$PELEVATION
 40
0.0
  9
$THICKNESS
 40
0.0
  9
$LIMCHECK
 70
     0
  9
$CHAMFERA
 40
2.5
  9
$CHAMFERB
 40
2.5
  9
$CHAMFERC
 40
0.0
  9
$CHAMFERD
 40
0.0
  9
$SKPOLY
 70
     0
  9
$TDCREATE
 40
0.000000000
  9
$TDUCREATE
 40
0.000000000
  9
$TDUPDATE
 40
0.000000000
  9
$TDUUPDATE
 40
0.000000000
  9
$TDINDWG
 40
0.0000000000
  9
$TDUSRTIMER
 40
0.0000000000
  9
$USRTIMER
 70
     1
  9
$ANGBASE
 50
0.0
  9
$ANGDIR
 70
     0
  9
$PDMODE
 70
     0
  9
$PDSIZE
 40
0.0
  9
$PLINEWID
 40
0.0
  9
$SPLFRAME
 70
     0
  9
$SPLINETYPE
 70
     6
  9
$SPLINESEGS
 70
     8
  9
$HANDSEED
  5
225
  9
$SURFTAB1
 70
     6
  9
$SURFTAB2
 70
     6
  9
$SURFTYPE
 70
     6
  9
$SURFU
 70
     6
  9
$SURFV
 70
     6
  9
$UCSBASE
  2

  9
$UCSNAME
  2

  9
$UCSORG
 10
0.0
 20
0.0
 30
0.0
  9
$UCSXDIR
 10
1.0
 20
0.0
 30
0.0
  9
$UCSYDIR
 10
0.0
 20
1.0
 30
0.0
  9
$UCSORTHOREF
  2

  9
$UCSORTHOVIEW
 70
     1
  9
$UCSORGTOP
 10
0.0
 20
0.0
 30
0.0
  9
$UCSORGBOTTOM
 10
0.0
 20
0.0
 30
0.0
  9
$UCSORGLEFT
 10
0.0
 20
0.0
 30
0.0
  9
$UCSORGRIGHT
 10
0.0
 20
0.0
 30
0.0
  9
$UCSORGFRONT
 10
0.0
 20
0.0
 30
0.0
  9
$UCSORGBACK
 10
0.0
 20
0.0
 30
0.0
  9
$PUCSBASE
  2

  9
$PUCSNAME
  2

  9
$PUCSORG
 10
0.0
 20
0.0
 30
0.0
  9
$PUCSXDIR
 10
1.0
 20
0.0
 30
0.0
  9
$PUCSYDIR
 10
0.0
 20
1.0
 30
0.0
  9
$PUCSORTHOREF
  2

  9
$PUCSORTHOVIEW
 70
     0
  9
$PUCSORGTOP
 10
0.0
 20
0.0
 30
0.0
  9
$PUCSORGBOTTOM
 10
0.0
 20
0.0
 30
0.0
  9
$PUCSORGLEFT
 10
0.0
 20
0.0
 30
0.0
  9
$PUCSORGRIGHT
 10
0.0
 20
0.0
 30
0.0
  9
$PUCSORGFRONT
 10
0.0
 20
0.0
 30
0.0
  9
$PUCSORGBACK
 10
0.0
 20
0.0
 30
0.0
  9
$USERI1
 70
     0
  9
$USERI2
 70
     0
  9
$USERI3
 70
     0
  9
$USERI4
 70
     0
  9
$USERI5
 70
     0
  9
$USERR1
 40
0.0
  9
$USERR2
 40
0.0
  9
$USERR3
 40
0.0
  9
$USERR4
 40
0.0
  9
$USERR5
 40
0.0
  9
$WORLDVIEW
 70
     1
  9
$SHADEDGE
 70
     3
  9
$SHADEDIF
 70
    70
  9
$TILEMODE
 70
     1
  9
$MAXACTVP
 70
    48
  9
$PINSBASE
 10
0.0
 20
0.0
 30
0.0
  9
$PLIMCHECK
 70
     0
  9
$PEXTMIN
 10
0.0
 20
0.0
 30
0.0
  9
$PEXTMAX
 10
520.15741
 20
748.951904
 30
2.0
  9
$PLIMMIN
 10
0.0
 20
0.0
  9
$PLIMMAX
 10
420.0
 20
297.0
  9
$UNITMODE
 70
     0
  9
$VISRETAIN
 70
     0
  9
$PLINEGEN
 70
     0
  9
$PSLTSCALE
 70
     1
  9
$TREEDEPTH
 70
  3020
  9
$CMLSTYLE
  2
Standard
  9
$CMLJUST
 70
     0
  9
$CMLSCALE
 40
20.0
  9
$PROXYGRAPHICS
 70
     1
  9
$MEASUREMENT
 70
     1
  9
$CELWEIGHT
370
    -1
  9
$ENDCAPS
280
     0
  9
$JOINSTYLE
280
     0
  9
$LWDISPLAY
290
     0
  9
$INSUNITS
 70
     0
  9
$HYPERLINKBASE
  1

  9
$STYLESHEET
  1

  9
$XEDIT
290
     1
  9
$CEPSNTYPE
380
     0
  9
$PSTYLEMODE
290
     0
  9
$FINGERPRINTGUID
  2

  9
$VERSIONGUID
  2

  9
$EXTNAMES
290
     0
  9
$PSVPSCALE
 40
0.0
  0
ENDSEC
  0
SECTION
  2
CLASSES
  0
CLASS
  1
LWPOLYLINE
  2
AcDbPolyline
  3
AutoCAD 2000
 90
        0
280
     0
281
     1
  0
CLASS
  1
IMAGE
  2
AcDbRasterImage
  3
ISM
 90
      127
280
     0
281
     1
  0
CLASS
  1
OLE2FRAME
  2
AcDbOle2Frame
  3
AutoCAD 2000
 90
        0
280
     0
281
     1
  0
CLASS
  1
HATCH
  2
AcDbHatch
  3
AutoCAD 2000
 90
        0
280
     0
281
     1
  0
CLASS
  1
DICTIONARYVAR
  2
AcDbDictionaryVar
  3
AutoCAD 2000
 90
        0
280
     0
281
     0
  0
CLASS
  1
RASTERVARIABLES
  2
AcDbRasterVariables
  3
ISM
 90
        0
280
     0
281
     0
  0
CLASS
  1
IMAGEDEF
  2
AcDbRasterImageDef
  3
ISM
 90
        0
280
     0
281
     0
  0
CLASS
  1
IMAGEDEF_REACTOR
  2
AcDbRasterImageDefReactor
  3
ISM
 90
        1
280
     0
281
     0
  0
CLASS
  1
IDBUFFER
  2
AcDbIdBuffer
  3
AutoCAD 2000
 90
        0
280
     0
281
     0
  0
CLASS
  1
SPATIAL_FILTER
  2
AcDbSpatialFilter
  3
AutoCAD 2000
 90
        0
280
     0
281
     0
  0
CLASS
  1
XRECORD
  2
AcDbXrecord
  3
AutoCAD 2000
 90
        0
280
     0
281
     0
  0
CLASS
  1
SORTENTSTABLE
  2
AcDbSortentsTable
  3
AutoCAD 2000
 90
        0
280
     0
281
     0
  0
CLASS
  1
LAYER_INDEX
  2
AcDbLayerIndex
  3
AutoCAD 2000
 90
        0
280
     0
281
     0
  0
CLASS
  1
SPATIAL_INDEX
  2
AcDbSpatialIndex
  3
AutoCAD 2000
 90
        0
280
     0
281
     0
  0
CLASS
  1
OBJECT_PTR
  2
CAseDLPNTableRecord
  3
"ASE-LPNTableRecord"
 90
        1
280
     0
281
     0
  0
CLASS
  1
LAYOUT
  2
AcDbLayout
  3
AutoCAD 2000
 90
        0
280
     0
281
     0
  0
CLASS
  1
PLOTSETTINGS
  2
AcDbPlotSettings
  3
AutoCAD 2000
 90
        0
280
     0
281
     0
  0
CLASS
  1
ACDBDICTIONARYWDFLT
  2
AcDbDictionaryWithDefault
  3
AutoCAD 2000
 90
        0
280
     0
281
     0
  0
CLASS
  1
ACDBPLACEHOLDER
  2
AcDbPlaceHolder
  3
AutoCAD 2000
 90
        0
280
     0
281
     0
  0
CLASS
  1
VBA_PROJECT
  2
AcDbVbaProject
  3
acadvba
 90
        0
280
     0
281
     0
  0
CLASS
  1
WIPEOUT
  2
AcDbWipeout
  3
WipeOut|AutoCAD Express Tool|expresstools@autodesk.com
 90
      127
280
     0
281
     1
  0
CLASS
  1
WIPEOUTVARIABLES
  2
AcDbWipeoutVariables
  3
WipeOut|AutoCAD Express Tool|expresstools@autodesk.com
 90
        0
280
     0
281
     0
  0
CLASS
  1
RTEXT
  2
RText
  3
RText|AutoCAD Express Tool|expresstools@autodesk.com
 90
        0
280
     0
281
     1
  0
CLASS
  1
ARCALIGNEDTEXT
  2
AcDbArcAlignedText
  3
ATEXT|AutoCAD Express Tool|expresstools@autodesk.com
 90
        0
280
     0
281
     1
  0
ENDSEC
  0
SECTION
  2
TABLES
  0
TABLE
  2
VPORT
  5
7
100
AcDbSymbolTable
 70
     1
  0
VPORT
  5
15
100
AcDbSymbolTableRecord
100
AcDbViewportTableRecord
  2
*ACTIVE
 70
     0
 10
0.0
 20
0.0
 11
1.0
 21
1.0
 12
6.591288
 22
4.579184
 13
0.0
 23
0.0
 14
1.0
 24
1.0
 15
0.0
 25
0.0
 16
0.0
 26
0.0
 36
1.0
 17
0.0
 27
0.0
 37
0.0
 40
9.158369
 41
0.688564
 42
50.0
 43
0.0
 44
0.0
 50
0.0
 51
0.0
 71
     0
 72
   100
 73
     1
 74
     1
 75
     0
 76
     0
 77
     0
 78
     0
281
     0
 65
     0
110
0.0
120
0.0
130
0.0
111
1.0
121
0.0
131
0.0
112
0.0
122
1.0
132
0.0
345
0
346
0
 79
     0
146
0.0
  0
ENDTAB
  0
TABLE
  2
LTYPE
  5
4
100
AcDbSymbolTable
 70
     3
  0
LTYPE
  5
11
100
AcDbSymbolTableRecord
100
AcDbLinetypeTableRecord
  2
ByBlock
 70
    64
  3

 72
    65
 73
     0
 40
0.0
  0
LTYPE
  5
12
100
AcDbSymbolTableRecord
100
AcDbLinetypeTableRecord
  2
ByLayer
 70
    64
  3

 72
    65
 73
     0
 40
0.0
  0
LTYPE
  5
13
100
AcDbSymbolTableRecord
100
AcDbLinetypeTableRecord
  2
Continuous
 70
    64
  3
Solid line
 72
    65
 73
     0
 40
0.0
  0
ENDTAB
  0
TABLE
  2
LAYER
  5
2
100
AcDbSymbolTable
 70
     1
  0
LAYER
  5
14
100
AcDbSymbolTableRecord
100
AcDbLayerTableRecord
  2
0
 70
     0
 62
     7
  6
Continuous
290
     1
370
    -3
390
1D
  0
ENDTAB
  0
TABLE
  2
STYLE
  5
3
100
AcDbSymbolTable
 70
     1
  0
STYLE
  5
17
100
AcDbSymbolTableRecord
100
AcDbTextStyleTableRecord
  2
Standard
 70
     0
 40
0.0
 41
1.0
 50
0.0
 71
     0
 42
0.0
  3
txt
  4

  0
ENDTAB
  0
TABLE
  2
VIEW
  5
5
100
AcDbSymbolTable
 70
     0
  0
ENDTAB
  0
TABLE
  2
UCS
  5
6
100
AcDbSymbolTable
 70
     0
  0
ENDTAB
  0
TABLE
  2
APPID
  5
8
100
AcDbSymbolTable
 70
     1
  0
APPID
  5
16
100
AcDbSymbolTableRecord
100
AcDbRegAppTableRecord
  2
ACAD
 70
     0
  0
ENDTAB
  0
TABLE
  2
DIMSTYLE
  5
9
100
AcDbSymbolTable
 70
     1
100
AcDbDimStyleTable
 71
     0
  0
DIMSTYLE
105
18
100
AcDbSymbolTableRecord
100
AcDbDimStyleTableRecord
  2
Standard
 70
     0
  3

  4

 40
1.0
 41
0.18
 42
0.0625
 43
0.38
 44
0.18
 45
0.0
 46
0.0
 47
0.0
 48
0.0
 71
     0
 72
     0
 73
     1
 74
     1
 75
     0
 76
     0
 77
     0
 78
     0
 79
     0
140
0.18
141
0.09
142
0.0
143
25.4
144
1.0
145
0.0
146
1.0
147
0.09
148
0.0
170
     0
171
     2
172
     0
173
     0
174
     0
175
     0
176
     0
177
     0
178
     0
179
     0
271
     4
272
     4
273
     2
274
     2
275
     0
276
     0
277
     2
278
    46
279
     0
280
     0
281
     0
282
     0
283
     1
284
     0
285
     0
286
     0
288
     0
289
     3
340
17
341
0
342
0
343
0
344
0
371
    -2
372
    -2
  0
ENDTAB
  0
TABLE
  2
BLOCK_RECORD
  5
1
100
AcDbSymbolTable
 70
     0
  0
BLOCK_RECORD
  5
A
100
AcDbSymbolTableRecord
100
AcDbBlockTableRecord
  2
*MODEL_SPACE
340
20
  0
BLOCK_RECORD
  5
B
100
AcDbSymbolTableRecord
100
AcDbBlockTableRecord
  2
*PAPER_SPACE
340
21
  0
ENDTAB
  0
ENDSEC
  0
SECTION
  2
BLOCKS
  0
BLOCK
  5
D
100
AcDbEntity
  8
0
390
0
100
AcDbBlockBegin
  2
*MODEL_SPACE
 70
     0
 10
0.0
 20
0.0
 30
0.0
  3
*MODEL_SPACE
  1

  0
ENDBLK
  5
E
100
AcDbEntity
  8
0
390
0
100
AcDbBlockEnd
  0
BLOCK
  5
F
100
AcDbEntity
 67
     1
  8
0
390
0
100
AcDbBlockBegin
  2
*PAPER_SPACE
 70
     0
 10
0.0
 20
0.0
 30
0.0
  3
*PAPER_SPACE
  1

  0
ENDBLK
  5
10
100
AcDbEntity
 67
     1
  8
0
390
0
100
AcDbBlockEnd
  0
ENDSEC
  0
SECTION
  2
ENTITIES
  0
VIEWPORT
  5
224
100
AcDbEntity
 67
     1
  8
0
370
     0
390
0
 62
     0
 48
0.0
100
AcDbViewport
 10
0.0
 20
0.0
 30
0.0
 40
1000.0
 41
1000.0
 68
     1
 69
     1
 12
0.0
 22
0.0
 13
0.0
 23
0.0
 14
1.0
 24
1.0
 15
1.0
 25
1.0
 16
0.0
 26
0.0
 36
1.0
 17
0.0
 27
0.0
 37
0.0
 42
50.0
 43
0.0
 44
0.0
 45
1000.0
 50
0.0
 51
0.0
 72
   100
 90
        0
340
0
  1

281
     0
 71
     0
 74
     1
110
0.0
120
0.0
130
0.0
111
1.0
121
0.0
131
0.0
112
0.0
122
1.0
132
0.0
345
0
346
0
 79
     0
146
0.0
  0
LINE
  5
24
100
AcDbEntity
  8
0
370
    35
390
0
 62
     7
100
AcDbLine
 10
96.091095
 20
608.911011
 30
0.0
 11
96.091095
 21
748.911011
 31
0.0
210
0.0
220
0.0
230
1.0
  0
LINE
  5
25
100
AcDbEntity
  8
0
370
    35
390
0
 62
     7
 48
0.05
100
AcDbLine
 10
96.091095
 20
608.911011
 30
0.0
 11
94.091095
 21
608.911011
 31
0.0
210
0.0
220
0.0
230
1.0
  0
LINE
  5
26
100
AcDbEntity
  8
0
370
    35
390
0
 62
     7
100
AcDbLine
 10
94.091095
 20
608.911011
 30
0.0
 11
94.091095
 21
528.911011
 31
0.0
210
0.0
220
0.0
230
1.0
  0
LINE
  5
27
100
AcDbEntity
  8
0
370
    35
390
0
 62
     7
 48
0.05
100
AcDbLine
 10
94.091095
 20
528.911011
 30
0.0
 11
96.091095
 21
528.911011
 31
0.0
210
0.0
220
0.0
230
1.0
  0
LINE
  5
28
100
AcDbEntity
  8
0
370
    35
390
0
 62
     7
100
AcDbLine
 10
96.091095
 20
528.911011
 30
0.0
 11
96.091095
 21
448.911011
 31
0.0
210
0.0
220
0.0
230
1.0
  0
LINE
  5
29
100
AcDbEntity
  8
0
370
    35
390
0
 62
     7
 48
0.45
100
AcDbLine
 10
114.091095
 20
448.911011
 30
0.0
 11
96.091095
 21
448.911011
 31
0.0
210
0.0
220
0.0
230
1.0
  0
LINE
  5
2A
100
AcDbEntity
  8
0
370
    35
390
0
 62
     7
 48
0.05
100
AcDbLine
 10
114.091095
 20
448.911011
 30
0.0
 11
114.091095
 21
450.911011
 31
0.0
210
0.0
220
0.0
230
1.0
  0
LINE
  5
2B
100
AcDbEntity
  8
0
370
    35
390
0
 62
     7
100
AcDbLine
 10
114.091095
 20
450.911011
 30
0.0
 11
144.091095
 21
450.911011
 31
0.0
210
0.0
220
0.0
230
1.0
  0
LINE
  5
2C
100
AcDbEntity
  8
0
370
    35
390
0
 62
     7
 48
0.05
100
AcDbLine
 10
144.091095
 20
450.911011
 30
0.0
 11
144.091095
 21
448.911011
 31
0.0
210
0.0
220
0.0
230
1.0
  0
LINE
  5
2D
100
AcDbEntity
  8
0
370
    35
390
0
 62
     7
 48
0.45
100
AcDbLine
 10
162.091095
 20
448.911011
 30
0.0
 11
144.091095
 21
448.911011
 31
0.0
210
0.0
220
0.0
230
1.0
  0
LINE
  5
2E
100
AcDbEntity
  8
0
370
    35
390
0
 62
     7
100
AcDbLine
 10
162.091095
 20
528.911011
 30
0.0
 11
162.091095
 21
448.911011
 31
0.0
210
0.0
220
0.0
230
1.0
  0
LINE
  5
2F
100
AcDbEntity
  8
0
370
    35
390
0
 62
     7
 48
0.05
100
AcDbLine
 10
164.091095
 20
528.911011
 30
0.0
 11
162.091095
 21
528.911011
 31
0.0
210
0.0
220
0.0
230
1.0
  0
LINE
  5
30
100
AcDbEntity
  8
0
370
    35
390
0
 62
     7
100
AcDbLine
 10
164.091095
 20
608.911011
 30
0.0
 11
164.091095
 21
528.911011
 31
0.0
210
0.0
220
0.0
230
1.0
  0
LINE
  5
31
100
AcDbEntity
  8
0
370
    35
390
0
 62
     7
 48
0.05
100
AcDbLine
 10
162.091095
 20
608.911011
 30
0.0
 11
164.091095
 21
608.911011
 31
0.0
210
0.0
220
0.0
230
1.0
  0
LINE
  5
32
100
AcDbEntity
  8
0
370
    35
390
0
 62
     7
100
AcDbLine
 10
162.091095
 20
608.911011
 30
0.0
 11
162.091095
 21
748.911011
 31
0.0
210
0.0
220
0.0
230
1.0
  0
LINE
  5
33
100
AcDbEntity
  8
0
370
    35
390
0
 62
     7
 48
0.45
100
AcDbLine
 10
144.091095
 20
748.911011
 30
0.0
 11
162.091095
 21
748.911011
 31
0.0
210
0.0
220
0.0
230
1.0
  0
LINE
  5
34
100
AcDbEntity
  8
0
370
    35
390
0
 62
     7
 48
0.05
100
AcDbLine
 10
144.091095
 20
748.911011
 30
0.0
 11
144.091095
 21
746.911011
 31
0.0
210
0.0
220
0.0
230
1.0
  0
LINE
  5
35
100
AcDbEntity
  8
0
370
    35
390
0
 62
     7
100
AcDbLine
 10
114.091095
 20
746.911011
 30
0.0
 11
144.091095
 21
746.911011
 31
0.0
210
0.0
220
0.0
230
1.0
  0
LINE
  5
36
100
AcDbEntity
  8
0
370
    35
390
0
 62
     7
 48
0.05
100
AcDbLine
 10
114.091095
 20
748.911011
 30
0.0
 11
114.091095
 21
746.911011
 31
0.0
210
0.0
220
0.0
230
1.0
  0
LINE
  5
37
100
AcDbEntity
  8
0
370
    35
390
0
 62
     7
 48
0.45
100
AcDbLine
 10
96.091095
 20
748.911011
 30
0.0
 11
114.091095
 21
748.911011
 31
0.0
210
0.0
220
0.0
230
1.0
  0
LINE
  5
38
100
AcDbEntity
  8
0
370
    35
390
0
 62
     7
100
AcDbLine
 10
158.091095
 20
638.911011
 30
0.0
 11
158.091095
 21
738.911011
 31
0.0
210
0.0
220
0.0
230
1.0
  0
ARC
  5
39
100
AcDbEntity
  8
0
370
    35
390
0
 62
     7
100
AcDbCircle
 10
154.091095
 20
638.911011
 30
0.0
 40
4.0
210
0.0
220
0.0
230
1.0
100
AcDbArc
 50
180.000005
 51
360.0
  0
LINE
  5
3A
100
AcDbEntity
  8
0
370
    35
390
0
 62
     7
100
AcDbLine
 10
150.091095
 20
738.911011
 30
0.0
 11
150.091095
 21
638.911011
 31
0.0
210
0.0
220
0.0
230
1.0
  0
ARC
  5
3B
100
AcDbEntity
  8
0
370
    35
390
0
 62
     7
100
AcDbCircle
 10
154.091095
 20
738.911011
 30
0.0
 40
4.0
210
0.0
220
0.0
230
1.0
100
AcDbArc
 50
0.0
 51
180.000005
  0
ARC
  5
3C
100
AcDbEntity
  8
0
370
    35
390
0
 62
     7
100
AcDbCircle
 10
104.091095
 20
738.911011
 30
0.0
 40
4.0
210
0.0
220
0.0
230
1.0
100
AcDbArc
 50
0.0
 51
180.000005
  0
LINE
  5
3D
100
AcDbEntity
  8
0
370
    35
390
0
 62
     7
100
AcDbLine
 10
108.091095
 20
738.911011
 30
0.0
 11
108.091095
 21
638.911011
 31
0.0
210
0.0
220
0.0
230
1.0
  0
ARC
  5
3E
100
AcDbEntity
  8
0
370
    35
390
0
 62
     7
100
AcDbCircle
 10
104.091095
 20
638.911011
 30
0.0
 40
4.0
210
0.0
220
0.0
230
1.0
100
AcDbArc
 50
180.000005
 51
360.0
  0
LINE
  5
3F
100
AcDbEntity
  8
0
370
    35
390
0
 62
     7
100
AcDbLine
 10
100.091095
 20
638.911011
 30
0.0
 11
100.091095
 21
738.911011
 31
0.0
210
0.0
220
0.0
230
1.0
  0
LINE
  5
40
100
AcDbEntity
  8
0
370
    35
390
0
 62
     7
 48
0.25
100
AcDbLine
 10
309.39035
 20
490.877899
 30
0.0
 11
309.39035
 21
480.877899
 31
0.0
210
0.0
220
0.0
230
1.0
  0
LINE
  5
41
100
AcDbEntity
  8
0
370
    35
390
0
 62
     7
 48
0.05
100
AcDbLine
 10
309.39035
 20
480.877899
 30
0.0
 11
307.39035
 21
480.877899
 31
0.0
210
0.0
220
0.0
230
1.0
  0
LINE
  5
42
100
AcDbEntity
  8
0
370
    35
390
0
 62
     7
 48
0.25
100
AcDbLine
 10
307.39035
 20
480.877899
 30
0.0
 11
307.39035
 21
470.877899
 31
0.0
210
0.0
220
0.0
230
1.0
  0
LINE
  5
43
100
AcDbEntity
  8
0
370
    35
390
0
 62
     7
 48
0.05
100
AcDbLine
 10
307.39035
 20
470.877899
 30
0.0
 11
309.39035
 21
470.877899
 31
0.0
210
0.0
220
0.0
230
1.0
  0
LINE
  5
44
100
AcDbEntity
  8
0
370
    35
390
0
 62
     7
 48
0.2
100
AcDbLine
 10
309.39035
 20
470.877899
 30
0.0
 11
309.39035
 21
462.877899
 31
0.0
210
0.0
220
0.0
230
1.0
  0
LINE
  5
45
100
AcDbEntity
  8
0
370
    35
390
0
 62
     7
 48
0.45
100
AcDbLine
 10
327.39035
 20
462.877899
 30
0.0
 11
309.39035
 21
462.877899
 31
0.0
210
0.0
220
0.0
230
1.0
  0
LINE
  5
46
100
AcDbEntity
  8
0
370
    35
390
0
 62
     7
 48
0.05
100
AcDbLine
 10
327.39035
 20
462.877899
 30
0.0
 11
327.39035
 21
460.877899
 31
0.0
210
0.0
220
0.0
230
1.0
  0
LINE
  5
47
100
AcDbEntity
  8
0
370
    35
390
0
 62
     7
100
AcDbLine
 10
327.39035
 20
460.877899
 30
0.0
 11
357.39035
 21
460.877899
 31
0.0
210
0.0
220
0.0
230
1.0
  0
LINE
  5
48
100
AcDbEntity
  8
0
370
    35
390
0
 62
     7
 48
0.05
100
AcDbLine
 10
357.39035
 20
462.877899
 30
0.0
 11
357.39035
 21
460.877899
 31
0.0
210
0.0
220
0.0
230
1.0
  0
LINE
  5
49
100
AcDbEntity
  8
0
370
    35
390
0
 62
     7
 48
0.45
100
AcDbLine
 10
375.39035
 20
462.877899
 30
0.0
 11
357.39035
 21
462.877899
 31
0.0
210
0.0
220
0.0
230
1.0
  0
LINE
  5
4A
100
AcDbEntity
  8
0
370
    35
390
0
 62
     7
 48
0.2
100
AcDbLine
 10
375.39035
 20
462.877899
 30
0.0
 11
375.39035
 21
470.877899
 31
0.0
210
0.0
220
0.0
230
1.0
  0
LINE
  5
4B
100
AcDbEntity
  8
0
370
    35
390
0
 62
     7
 48
0.05
100
AcDbLine
 10
377.39035
 20
470.877899
 30
0.0
 11
375.39035
 21
470.877899
 31
0.0
210
0.0
220
0.0
230
1.0
  0
LINE
  5
4C
100
AcDbEntity
  8
0
370
    35
390
0
 62
     7
 48
0.25
100
AcDbLine
 10
377.39035
 20
480.877899
 30
0.0
 11
377.39035
 21
470.877899
 31
0.0
210
0.0
220
0.0
230
1.0
  0
LINE
  5
4D
100
AcDbEntity
  8
0
370
    35
390
0
 62
     7
 48
0.05
100
AcDbLine
 10
375.39035
 20
480.877899
 30
0.0
 11
377.39035
 21
480.877899
 31
0.0
210
0.0
220
0.0
230
1.0
  0
LINE
  5
4E
100
AcDbEntity
  8
0
370
    35
390
0
 62
     7
 48
0.25
100
AcDbLine
 10
375.39035
 20
480.877899
 30
0.0
 11
375.39035
 21
490.877899
 31
0.0
210
0.0
220
0.0
230
1.0
  0
LINE
  5
4F
100
AcDbEntity
  8
0
370
    35
390
0
 62
     7
 48
0.45
100
AcDbLine
 10
357.39035
 20
490.877899
 30
0.0
 11
375.39035
 21
490.877899
 31
0.0
210
0.0
220
0.0
230
1.0
  0
LINE
  5
50
100
AcDbEntity
  8
0
370
    35
390
0
 62
     7
 48
0.05
100
AcDbLine
 10
357.39035
 20
490.877899
 30
0.0
 11
357.39035
 21
492.877899
 31
0.0
210
0.0
220
0.0
230
1.0
  0
LINE
  5
51
100
AcDbEntity
  8
0
370
    35
390
0
 62
     7
100
AcDbLine
 10
357.39035
 20
492.877899
 30
0.0
 11
327.39035
 21
492.877899
 31
0.0
210
0.0
220
0.0
230
1.0
  0
LINE
  5
52
100
AcDbEntity
  8
0
370
    35
390
0
 62
     7
 48
0.05
100
AcDbLine
 10
327.39035
 20
490.877899
 30
0.0
 11
327.39035
 21
492.877899
 31
0.0
210
0.0
220
0.0
230
1.0
  0
LINE
  5
53
100
AcDbEntity
  8
0
370
    35
390
0
 62
     7
 48
0.45
100
AcDbLine
 10
309.39035
 20
490.877899
 30
0.0
 11
327.39035
 21
490.877899
 31
0.0
210
0.0
220
0.0
230
1.0
  0
LINE
  5
54
100
AcDbEntity
  8
0
370
    35
390
0
 62
     7
 48
0.25
100
AcDbLine
 10
309.39035
 20
523.87793
 30
0.0
 11
309.39035
 21
513.87793
 31
0.0
210
0.0
220
0.0
230
1.0
  0
LINE
  5
55
100
AcDbEntity
  8
0
370
    35
390
0
 62
     7
 48
0.05
100
AcDbLine
 10
309.39035
 20
513.87793
 30
0.0
 11
307.39035
 21
513.87793
 31
0.0
210
0.0
220
0.0
230
1.0
  0
LINE
  5
56
100
AcDbEntity
  8
0
370
    35
390
0
 62
     7
 48
0.250001
100
AcDbLine
 10
307.39035
 20
513.87793
 30
0.0
 11
307.39035
 21
503.877899
 31
0.0
210
0.0
220
0.0
230
1.0
  0
LINE
  5
57
100
AcDbEntity
  8
0
370
    35
390
0
 62
     7
 48
0.05
100
AcDbLine
 10
307.39035
 20
503.877899
 30
0.0
 11
309.39035
 21
503.877899
 31
0.0
210
0.0
220
0.0
230
1.0
  0
LINE
  5
58
100
AcDbEntity
  8
0
370
    35
390
0
 62
     7
 48
0.2
100
AcDbLine
 10
309.39035
 20
503.877899
 30
0.0
 11
309.39035
 21
495.877899
 31
0.0
210
0.0
220
0.0
230
1.0
  0
LINE
  5
59
100
AcDbEntity
  8
0
370
    35
390
0
 62
     7
 48
0.45
100
AcDbLine
 10
327.39035
 20
495.877899
 30
0.0
 11
309.39035
 21
495.877899
 31
0.0
210
0.0
220
0.0
230
1.0
  0
LINE
  5
5A
100
AcDbEntity
  8
0
370
    35
390
0
 62
     7
 48
0.05
100
AcDbLine
 10
327.39035
 20
495.877899
 30
0.0
 11
327.39035
 21
493.877899
 31
0.0
210
0.0
220
0.0
230
1.0
  0
LINE
  5
5B
100
AcDbEntity
  8
0
370
    35
390
0
 62
     7
100
AcDbLine
 10
327.39035
 20
493.877899
 30
0.0
 11
357.39035
 21
493.877899
 31
0.0
210
0.0
220
0.0
230
1.0
  0
LINE
  5
5C
100
AcDbEntity
  8
0
370
    35
390
0
 62
     7
 48
0.05
100
AcDbLine
 10
357.39035
 20
495.877899
 30
0.0
 11
357.39035
 21
493.877899
 31
0.0
210
0.0
220
0.0
230
1.0
  0
LINE
  5
5D
100
AcDbEntity
  8
0
370
    35
390
0
 62
     7
 48
0.45
100
AcDbLine
 10
375.39035
 20
495.877899
 30
0.0
 11
357.39035
 21
495.877899
 31
0.0
210
0.0
220
0.0
230
1.0
  0
LINE
  5
5E
100
AcDbEntity
  8
0
370
    35
390
0
 62
     7
 48
0.2
100
AcDbLine
 10
375.39035
 20
495.877899
 30
0.0
 11
375.39035
 21
503.877899
 31
0.0
210
0.0
220
0.0
230
1.0
  0
LINE
  5
5F
100
AcDbEntity
  8
0
370
    35
390
0
 62
     7
 48
0.05
100
AcDbLine
 10
377.39035
 20
503.877899
 30
0.0
 11
375.39035
 21
503.877899
 31
0.0
210
0.0
220
0.0
230
1.0
  0
LINE
  5
60
100
AcDbEntity
  8
0
370
    35
390
0
 62
     7
 48
0.250001
100
AcDbLine
 10
377.39035
 20
513.87793
 30
0.0
 11
377.39035
 21
503.877899
 31
0.0
210
0.0
220
0.0
230
1.0
  0
LINE
  5
61
100
AcDbEntity
  8
0
370
    35
390
0
 62
     7
 48
0.05
100
AcDbLine
 10
375.39035
 20
513.87793
 30
0.0
 11
377.39035
 21
513.87793
 31
0.0
210
0.0
220
0.0
230
1.0
  0
LINE
  5
62
100
AcDbEntity
  8
0
370
    35
390
0
 62
     7
 48
0.25
100
AcDbLine
 10
375.39035
 20
513.87793
 30
0.0
 11
375.39035
 21
523.87793
 31
0.0
210
0.0
220
0.0
230
1.0
  0
LINE
  5
63
100
AcDbEntity
  8
0
370
    35
390
0
 62
     7
 48
0.45
100
AcDbLine
 10
357.39035
 20
523.87793
 30
0.0
 11
375.39035
 21
523.87793
 31
0.0
210
0.0
220
0.0
230
1.0
  0
LINE
  5
64
100
AcDbEntity
  8
0
370
    35
390
0
 62
     7
 48
0.05
100
AcDbLine
 10
357.39035
 20
523.87793
 30
0.0
 11
357.39035
 21
525.87793
 31
0.0
210
0.0
220
0.0
230
1.0
  0
LINE
  5
65
100
AcDbEntity
  8
0
370
    35
390
0
 62
     7
100
AcDbLine
 10
357.39035
 20
525.87793
 30
0.0
 11
327.39035
 21
525.87793
 31
0.0
210
0.0
220
0.0
230
1.0
  0
LINE
  5
66
100
AcDbEntity
  8
0
370
    35
390
0
 62
     7
 48
0.05
100
AcDbLine
 10
327.39035
 20
523.87793
 30
0.0
 11
327.39035
 21
525.87793
 31
0.0
210
0.0
220
0.0
230
1.0
  0
LINE
  5
67
100
AcDbEntity
  8
0
370
    35
390
0
 62
     7
 48
0.45
100
AcDbLine
 10
309.39035
 20
523.87793
 30
0.0
 11
327.39035
 21
523.87793
 31
0.0
210
0.0
220
0.0
230
1.0
  0
LINE
  5
68
100
AcDbEntity
  8
0
370
    35
390
0
 62
     7
100
AcDbLine
 10
23.126385
 20
748.951904
 30
0.0
 11
23.126385
 21
648.951904
 31
0.0
210
0.0
220
0.0
230
1.0
  0
LINE
  5
69
100
AcDbEntity
  8
0
370
    35
390
0
 62
     7
 48
0.05
100
AcDbLine
 10
25.126385
 20
648.951904
 30
0.0
 11
23.126385
 21
648.951904
 31
0.0
210
0.0
220
0.0
230
1.0
  0
LINE
  5
6A
100
AcDbEntity
  8
0
370
    35
390
0
 62
     7
100
AcDbLine
 10
25.126385
 20
573.951904
 30
0.0
 11
25.126385
 21
648.951904
 31
0.0
210
0.0
220
0.0
230
1.0
  0
LINE
  5
6B
100
AcDbEntity
  8
0
370
    35
390
0
 62
     7
 48
0.05
100
AcDbLine
 10
23.126385
 20
573.951904
 30
0.0
 11
25.126385
 21
573.951904
 31
0.0
210
0.0
220
0.0
230
1.0
  0
LINE
  5
6C
100
AcDbEntity
  8
0
370
    35
390
0
 62
     7
100
AcDbLine
 10
23.126385
 20
573.951904
 30
0.0
 11
23.126385
 21
498.951874
 31
0.0
210
0.0
220
0.0
230
1.0
  0
LINE
  5
6D
100
AcDbEntity
  8
0
370
    35
390
0
 62
     7
 48
0.05
100
AcDbLine
 10
25.126385
 20
498.951874
 30
0.0
 11
23.126385
 21
498.951874
 31
0.0
210
0.0
220
0.0
230
1.0
  0
LINE
  5
6E
100
AcDbEntity
  8
0
370
    35
390
0
 62
     7
100
AcDbLine
 10
25.126385
 20
468.951874
 30
0.0
 11
25.126385
 21
498.951874
 31
0.0
210
0.0
220
0.0
230
1.0
  0
LINE
  5
6F
100
AcDbEntity
  8
0
370
    35
390
0
 62
     7
 48
0.05
100
AcDbLine
 10
23.126385
 20
468.951874
 30
0.0
 11
25.126385
 21
468.951874
 31
0.0
210
0.0
220
0.0
230
1.0
  0
LINE
  5
70
100
AcDbEntity
  8
0
370
    35
390
0
 62
     7
100
AcDbLine
 10
23.126385
 20
468.951874
 30
0.0
 11
23.126385
 21
448.951874
 31
0.0
210
0.0
220
0.0
230
1.0
  0
LINE
  5
71
100
AcDbEntity
  8
0
370
    35
390
0
 62
     7
100
AcDbLine
 10
43.126385
 20
448.951874
 30
0.0
 11
23.126385
 21
448.951874
 31
0.0
210
0.0
220
0.0
230
1.0
  0
LINE
  5
72
100
AcDbEntity
  8
0
370
    35
390
0
 62
     7
 48
0.05
100
AcDbLine
 10
43.126385
 20
448.951874
 30
0.0
 11
43.126385
 21
450.951874
 31
0.0
210
0.0
220
0.0
230
1.0
  0
LINE
  5
73
100
AcDbEntity
  8
0
370
    35
390
0
 62
     7
100
AcDbLine
 10
43.126385
 20
450.951874
 30
0.0
 11
73.126389
 21
450.951874
 31
0.0
210
0.0
220
0.0
230
1.0
  0
LINE
  5
74
100
AcDbEntity
  8
0
370
    35
390
0
 62
     7
 48
0.05
100
AcDbLine
 10
73.126389
 20
450.951874
 30
0.0
 11
73.126389
 21
448.951874
 31
0.0
210
0.0
220
0.0
230
1.0
  0
LINE
  5
75
100
AcDbEntity
  8
0
370
    35
390
0
 62
     7
100
AcDbLine
 10
93.126389
 20
448.951874
 30
0.0
 11
73.126389
 21
448.951874
 31
0.0
210
0.0
220
0.0
230
1.0
  0
LINE
  5
76
100
AcDbEntity
  8
0
370
    35
390
0
 62
     7
100
AcDbLine
 10
93.126389
 20
448.951874
 30
0.0
 11
93.126389
 21
468.951874
 31
0.0
210
0.0
220
0.0
230
1.0
  0
LINE
  5
77
100
AcDbEntity
  8
0
370
    35
390
0
 62
     7
 48
0.05
100
AcDbLine
 10
93.126389
 20
468.951874
 30
0.0
 11
91.126389
 21
468.951874
 31
0.0
210
0.0
220
0.0
230
1.0
  0
LINE
  5
78
100
AcDbEntity
  8
0
370
    35
390
0
 62
     7
100
AcDbLine
 10
91.126389
 20
468.951874
 30
0.0
 11
91.126389
 21
541.951904
 31
0.0
210
0.0
220
0.0
230
1.0
  0
LINE
  5
79
100
AcDbEntity
  8
0
370
    35
390
0
 62
     7
 48
0.05
100
AcDbLine
 10
93.126389
 20
541.951904
 30
0.0
 11
91.126389
 21
541.951904
 31
0.0
210
0.0
220
0.0
230
1.0
  0
LINE
  5
7A
100
AcDbEntity
  8
0
370
    35
390
0
 62
     7
100
AcDbLine
 10
93.126389
 20
541.951904
 30
0.0
 11
93.126389
 21
573.951904
 31
0.0
210
0.0
220
0.0
230
1.0
  0
LINE
  5
7B
100
AcDbEntity
  8
0
370
    35
390
0
 62
     7
 48
0.05
100
AcDbLine
 10
93.126389
 20
573.951904
 30
0.0
 11
91.126389
 21
573.951904
 31
0.0
210
0.0
220
0.0
230
1.0
  0
LINE
  5
7C
100
AcDbEntity
  8
0
370
    35
390
0
 62
     7
100
AcDbLine
 10
91.126389
 20
573.951904
 30
0.0
 11
91.126389
 21
648.951904
 31
0.0
210
0.0
220
0.0
230
1.0
  0
LINE
  5
7D
100
AcDbEntity
  8
0
370
    35
390
0
 62
     7
 48
0.05
100
AcDbLine
 10
91.126389
 20
648.951904
 30
0.0
 11
93.126389
 21
648.951904
 31
0.0
210
0.0
220
0.0
230
1.0
  0
LINE
  5
7E
100
AcDbEntity
  8
0
370
    35
390
0
 62
     7
100
AcDbLine
 10
93.126389
 20
648.951904
 30
0.0
 11
93.126389
 21
748.951904
 31
0.0
210
0.0
220
0.0
230
1.0
  0
LINE
  5
7F
100
AcDbEntity
  8
0
370
    35
390
0
 62
     7
100
AcDbLine
 10
73.126389
 20
748.951904
 30
0.0
 11
93.126389
 21
748.951904
 31
0.0
210
0.0
220
0.0
230
1.0
  0
LINE
  5
80
100
AcDbEntity
  8
0
370
    35
390
0
 62
     7
 48
0.05
100
AcDbLine
 10
73.126389
 20
746.951904
 30
0.0
 11
73.126389
 21
748.951904
 31
0.0
210
0.0
220
0.0
230
1.0
  0
LINE
  5
81
100
AcDbEntity
  8
0
370
    35
390
0
 62
     7
100
AcDbLine
 10
43.126385
 20
746.951904
 30
0.0
 11
73.126389
 21
746.951904
 31
0.0
210
0.0
220
0.0
230
1.0
  0
LINE
  5
82
100
AcDbEntity
  8
0
370
    35
390
0
 62
     7
 48
0.05
100
AcDbLine
 10
43.126385
 20
748.951904
 30
0.0
 11
43.126385
 21
746.951904
 31
0.0
210
0.0
220
0.0
230
1.0
  0
LINE
  5
83
100
AcDbEntity
  8
0
370
    35
390
0
 62
     7
100
AcDbLine
 10
23.126385
 20
748.951904
 30
0.0
 11
43.126385
 21
748.951904
 31
0.0
210
0.0
220
0.0
230
1.0
  0
LINE
  5
84
100
AcDbEntity
  8
0
370
    35
390
0
 62
     7
100
AcDbLine
 10
43.126385
 20
498.951874
 30
0.0
 11
73.126389
 21
498.951874
 31
0.0
210
0.0
220
0.0
230
1.0
  0
LINE
  5
85
100
AcDbEntity
  8
0
370
    35
390
0
 62
     7
 48
0.1
100
AcDbLine
 10
73.126389
 20
494.951874
 30
0.0
 11
73.126389
 21
498.951874
 31
0.0
210
0.0
220
0.0
230
1.0
  0
LINE
  5
86
100
AcDbEntity
  8
0
370
    35
390
0
 62
     7
100
AcDbLine
 10
73.126389
 20
494.951874
 30
0.0
 11
43.126385
 21
494.951874
 31
0.0
210
0.0
220
0.0
230
1.0
  0
LINE
  5
87
100
AcDbEntity
  8
0
370
    35
390
0
 62
     7
 48
0.1
100
AcDbLine
 10
43.126385
 20
498.951874
 30
0.0
 11
43.126385
 21
494.951874
 31
0.0
210
0.0
220
0.0
230
1.0
  0
LINE
  5
88
100
AcDbEntity
  8
0
370
    35
390
0
 62
     7
 48
0.4
100
AcDbLine
 10
50.126385
 20
618.951904
 30
0.0
 11
66.126389
 21
618.951904
 31
0.0
210
0.0
220
0.0
230
1.0
  0
LINE
  5
89
100
AcDbEntity
  8
0
370
    35
390
0
 62
     7
100
AcDbLine
 10
66.126389
 20
587.951904
 30
0.0
 11
66.126389
 21
618.951904
 31
0.0
210
0.0
220
0.0
230
1.0
  0
LINE
  5
8A
100
AcDbEntity
  8
0
370
    35
390
0
 62
     7
 48
0.4
100
AcDbLine
 10
66.126389
 20
587.951904
 30
0.0
 11
50.126385
 21
587.951904
 31
0.0
210
0.0
220
0.0
230
1.0
  0
LINE
  5
8B
100
AcDbEntity
  8
0
370
    35
390
0
 62
     7
100
AcDbLine
 10
50.126385
 20
618.951904
 30
0.0
 11
50.126385
 21
587.951904
 31
0.0
210
0.0
220
0.0
230
1.0
  0
LINE
  5
8C
100
AcDbEntity
  8
0
370
    35
390
0
 62
     7
100
AcDbLine
 10
84.626389
 20
638.951904
 30
0.0
 11
84.626389
 21
738.951904
 31
0.0
210
0.0
220
0.0
230
1.0
  0
ARC
  5
8D
100
AcDbEntity
  8
0
370
    35
390
0
 62
     7
100
AcDbCircle
 10
83.126389
 20
638.951904
 30
0.0
 40
1.5
210
0.0
220
0.0
230
1.0
100
AcDbArc
 50
180.000005
 51
360.0
  0
LINE
  5
8E
100
AcDbEntity
  8
0
370
    35
390
0
 62
     7
100
AcDbLine
 10
81.626389
 20
738.951904
 30
0.0
 11
81.626389
 21
638.951904
 31
0.0
210
0.0
220
0.0
230
1.0
  0
ARC
  5
8F
100
AcDbEntity
  8
0
370
    35
390
0
 62
     7
100
AcDbCircle
 10
83.126389
 20
738.951904
 30
0.0
 40
1.5
210
0.0
220
0.0
230
1.0
100
AcDbArc
 50
0.0
 51
180.000005
  0
ARC
  5
90
100
AcDbEntity
  8
0
370
    35
390
0
 62
     7
100
AcDbCircle
 10
33.126385
 20
738.951904
 30
0.0
 40
1.5
210
0.0
220
0.0
230
1.0
100
AcDbArc
 50
0.0
 51
180.000005
  0
LINE
  5
91
100
AcDbEntity
  8
0
370
    35
390
0
 62
     7
100
AcDbLine
 10
34.626385
 20
738.951904
 30
0.0
 11
34.626385
 21
638.951904
 31
0.0
210
0.0
220
0.0
230
1.0
  0
ARC
  5
92
100
AcDbEntity
  8
0
370
    35
390
0
 62
     7
100
AcDbCircle
 10
33.126385
 20
638.951904
 30
0.0
 40
1.5
210
0.0
220
0.0
230
1.0
100
AcDbArc
 50
180.000005
 51
360.0
  0
LINE
  5
93
100
AcDbEntity
  8
0
370
    35
390
0
 62
     7
100
AcDbLine
 10
31.626385
 20
638.951904
 30
0.0
 11
31.626385
 21
738.951904
 31
0.0
210
0.0
220
0.0
230
1.0
  0
LINE
  5
94
100
AcDbEntity
  8
0
370
    35
390
0
 62
     7
 48
0.45
100
AcDbLine
 10
444.389343
 20
698.196106
 30
0.0
 11
444.389343
 21
680.196106
 31
0.0
210
0.0
220
0.0
230
1.0
  0
LINE
  5
95
100
AcDbEntity
  8
0
370
    35
390
0
 62
     7
 48
0.1
100
AcDbLine
 10
444.389343
 20
698.196106
 30
0.0
 11
448.389343
 21
698.196106
 31
0.0
210
0.0
220
0.0
230
1.0
  0
LINE
  5
96
100
AcDbEntity
  8
0
370
    35
390
0
 62
     7
100
AcDbLine
 10
448.389343
 20
698.196106
 30
0.0
 11
448.389343
 21
728.196106
 31
0.0
210
0.0
220
0.0
230
1.0
  0
LINE
  5
97
100
AcDbEntity
  8
0
370
    35
390
0
 62
     7
 48
0.1
100
AcDbLine
 10
448.389343
 20
728.196106
 30
0.0
 11
444.389343
 21
728.196106
 31
0.0
210
0.0
220
0.0
230
1.0
  0
LINE
  5
98
100
AcDbEntity
  8
0
370
    35
390
0
 62
     7
 48
0.45
100
AcDbLine
 10
444.389343
 20
728.196106
 30
0.0
 11
444.389343
 21
746.196106
 31
0.0
210
0.0
220
0.0
230
1.0
  0
LINE
  5
99
100
AcDbEntity
  8
0
370
    35
390
0
 62
     7
 48
0.4
100
AcDbLine
 10
428.389343
 20
746.196106
 30
0.0
 11
444.389343
 21
746.196106
 31
0.0
210
0.0
220
0.0
230
1.0
  0
LINE
  5
9A
100
AcDbEntity
  8
0
370
    35
390
0
 62
     7
 48
0.05
100
AcDbLine
 10
428.389343
 20
746.196106
 30
0.0
 11
428.389343
 21
748.196106
 31
0.0
210
0.0
220
0.0
230
1.0
  0
LINE
  5
9B
100
AcDbEntity
  8
0
370
    35
390
0
 62
     7
100
AcDbLine
 10
398.389343
 20
748.196106
 30
0.0
 11
428.389343
 21
748.196106
 31
0.0
210
0.0
220
0.0
230
1.0
  0
LINE
  5
9C
100
AcDbEntity
  8
0
370
    35
390
0
 62
     7
 48
0.05
100
AcDbLine
 10
398.389343
 20
748.196106
 30
0.0
 11
398.389343
 21
746.196106
 31
0.0
210
0.0
220
0.0
230
1.0
  0
LINE
  5
9D
100
AcDbEntity
  8
0
370
    35
390
0
 62
     7
 48
0.4
100
AcDbLine
 10
398.389343
 20
746.196106
 30
0.0
 11
382.389343
 21
746.196106
 31
0.0
210
0.0
220
0.0
230
1.0
  0
LINE
  5
9E
100
AcDbEntity
  8
0
370
    35
390
0
 62
     7
 48
0.45
100
AcDbLine
 10
382.389343
 20
728.196106
 30
0.0
 11
382.389343
 21
746.196106
 31
0.0
210
0.0
220
0.0
230
1.0
  0
LINE
  5
9F
100
AcDbEntity
  8
0
370
    35
390
0
 62
     7
 48
0.1
100
AcDbLine
 10
378.389343
 20
728.196106
 30
0.0
 11
382.389343
 21
728.196106
 31
0.0
210
0.0
220
0.0
230
1.0
  0
LINE
  5
A0
100
AcDbEntity
  8
0
370
    35
390
0
 62
     7
100
AcDbLine
 10
378.389343
 20
698.196106
 30
0.0
 11
378.389343
 21
728.196106
 31
0.0
210
0.0
220
0.0
230
1.0
  0
LINE
  5
A1
100
AcDbEntity
  8
0
370
    35
390
0
 62
     7
 48
0.1
100
AcDbLine
 10
382.389343
 20
698.196106
 30
0.0
 11
378.389343
 21
698.196106
 31
0.0
210
0.0
220
0.0
230
1.0
  0
LINE
  5
A2
100
AcDbEntity
  8
0
370
    35
390
0
 62
     7
 48
0.45
100
AcDbLine
 10
382.389343
 20
698.196106
 30
0.0
 11
382.389343
 21
680.196106
 31
0.0
210
0.0
220
0.0
230
1.0
  0
LINE
  5
A3
100
AcDbEntity
  8
0
370
    35
390
0
 62
     7
 48
0.4
100
AcDbLine
 10
398.389343
 20
680.196106
 30
0.0
 11
382.389343
 21
680.196106
 31
0.0
210
0.0
220
0.0
230
1.0
  0
LINE
  5
A4
100
AcDbEntity
  8
0
370
    35
390
0
 62
     7
 48
0.05
100
AcDbLine
 10
398.389343
 20
678.196106
 30
0.0
 11
398.389343
 21
680.196106
 31
0.0
210
0.0
220
0.0
230
1.0
  0
LINE
  5
A5
100
AcDbEntity
  8
0
370
    35
390
0
 62
     7
100
AcDbLine
 10
428.389343
 20
678.196106
 30
0.0
 11
398.389343
 21
678.196106
 31
0.0
210
0.0
220
0.0
230
1.0
  0
LINE
  5
A6
100
AcDbEntity
  8
0
370
    35
390
0
 62
     7
 48
0.05
100
AcDbLine
 10
428.389343
 20
680.196106
 30
0.0
 11
428.389343
 21
678.196106
 31
0.0
210
0.0
220
0.0
230
1.0
  0
LINE
  5
A7
100
AcDbEntity
  8
0
370
    35
390
0
 62
     7
 48
0.4
100
AcDbLine
 10
444.389343
 20
680.196106
 30
0.0
 11
428.389343
 21
680.196106
 31
0.0
210
0.0
220
0.0
230
1.0
  0
CIRCLE
  5
A8
100
AcDbEntity
  8
0
370
    35
390
0
 62
     7
100
AcDbCircle
 10
397.479431
 20
697.286194
 30
0.0
 40
2.75
210
0.0
220
0.0
230
1.0
  0
CIRCLE
  5
A9
100
AcDbEntity
  8
0
370
    35
390
0
 62
     7
100
AcDbCircle
 10
397.479431
 20
729.106018
 30
0.0
 40
2.75
210
0.0
220
0.0
230
1.0
  0
CIRCLE
  5
AA
100
AcDbEntity
  8
0
370
    35
390
0
 62
     7
100
AcDbCircle
 10
429.299255
 20
729.106018
 30
0.0
 40
2.75
210
0.0
220
0.0
230
1.0
  0
CIRCLE
  5
AB
100
AcDbEntity
  8
0
370
    35
390
0
 62
     7
100
AcDbCircle
 10
429.299255
 20
697.286194
 30
0.0
 40
2.75
210
0.0
220
0.0
230
1.0
  0
CIRCLE
  5
AC
100
AcDbEntity
  8
0
370
    35
390
0
 62
     7
100
AcDbCircle
 10
388.889343
 20
713.196106
 30
0.0
 40
3.25
210
0.0
220
0.0
230
1.0
  0
CIRCLE
  5
AD
100
AcDbEntity
  8
0
370
    35
390
0
 62
     7
100
AcDbCircle
 10
413.389343
 20
737.696106
 30
0.0
 40
3.25
210
0.0
220
0.0
230
1.0
  0
CIRCLE
  5
AE
100
AcDbEntity
  8
0
370
    35
390
0
 62
     7
100
AcDbCircle
 10
437.889343
 20
713.196106
 30
0.0
 40
3.25
210
0.0
220
0.0
230
1.0
  0
CIRCLE
  5
AF
100
AcDbEntity
  8
0
370
    35
390
0
 62
     7
100
AcDbCircle
 10
413.389343
 20
688.696106
 30
0.0
 40
3.25
210
0.0
220
0.0
230
1.0
  0
LINE
  5
B0
100
AcDbEntity
  8
0
370
    35
390
0
 62
     7
 48
0.45
100
AcDbLine
 10
373.389343
 20
698.196106
 30
0.0
 11
373.389343
 21
680.196106
 31
0.0
210
0.0
220
0.0
230
1.0
  0
LINE
  5
B1
100
AcDbEntity
  8
0
370
    35
390
0
 62
     7
 48
0.1
100
AcDbLine
 10
373.389343
 20
698.196106
 30
0.0
 11
377.389343
 21
698.196106
 31
0.0
210
0.0
220
0.0
230
1.0
  0
LINE
  5
B2
100
AcDbEntity
  8
0
370
    35
390
0
 62
     7
100
AcDbLine
 10
377.389343
 20
698.196106
 30
0.0
 11
377.389343
 21
728.196106
 31
0.0
210
0.0
220
0.0
230
1.0
  0
LINE
  5
B3
100
AcDbEntity
  8
0
370
    35
390
0
 62
     7
 48
0.1
100
AcDbLine
 10
377.389343
 20
728.196106
 30
0.0
 11
373.389343
 21
728.196106
 31
0.0
210
0.0
220
0.0
230
1.0
  0
LINE
  5
B4
100
AcDbEntity
  8
0
370
    35
390
0
 62
     7
 48
0.45
100
AcDbLine
 10
373.389343
 20
728.196106
 30
0.0
 11
373.389343
 21
746.196106
 31
0.0
210
0.0
220
0.0
230
1.0
  0
LINE
  5
B5
100
AcDbEntity
  8
0
370
    35
390
0
 62
     7
 48
0.4
100
AcDbLine
 10
357.389343
 20
746.196106
 30
0.0
 11
373.389343
 21
746.196106
 31
0.0
210
0.0
220
0.0
230
1.0
  0
LINE
  5
B6
100
AcDbEntity
  8
0
370
    35
390
0
 62
     7
 48
0.05
100
AcDbLine
 10
357.389343
 20
746.196106
 30
0.0
 11
357.389343
 21
748.196106
 31
0.0
210
0.0
220
0.0
230
1.0
  0
LINE
  5
B7
100
AcDbEntity
  8
0
370
    35
390
0
 62
     7
100
AcDbLine
 10
327.389343
 20
748.196106
 30
0.0
 11
357.389343
 21
748.196106
 31
0.0
210
0.0
220
0.0
230
1.0
  0
LINE
  5
B8
100
AcDbEntity
  8
0
370
    35
390
0
 62
     7
 48
0.05
100
AcDbLine
 10
327.389343
 20
748.196106
 30
0.0
 11
327.389343
 21
746.196106
 31
0.0
210
0.0
220
0.0
230
1.0
  0
LINE
  5
B9
100
AcDbEntity
  8
0
370
    35
390
0
 62
     7
 48
0.4
100
AcDbLine
 10
327.389343
 20
746.196106
 30
0.0
 11
311.389343
 21
746.196106
 31
0.0
210
0.0
220
0.0
230
1.0
  0
LINE
  5
BA
100
AcDbEntity
  8
0
370
    35
390
0
 62
     7
 48
0.45
100
AcDbLine
 10
311.389343
 20
728.196106
 30
0.0
 11
311.389343
 21
746.196106
 31
0.0
210
0.0
220
0.0
230
1.0
  0
LINE
  5
BB
100
AcDbEntity
  8
0
370
    35
390
0
 62
     7
 48
0.1
100
AcDbLine
 10
307.389343
 20
728.196106
 30
0.0
 11
311.389343
 21
728.196106
 31
0.0
210
0.0
220
0.0
230
1.0
  0
LINE
  5
BC
100
AcDbEntity
  8
0
370
    35
390
0
 62
     7
100
AcDbLine
 10
307.389343
 20
698.196106
 30
0.0
 11
307.389343
 21
728.196106
 31
0.0
210
0.0
220
0.0
230
1.0
  0
LINE
  5
BD
100
AcDbEntity
  8
0
370
    35
390
0
 62
     7
 48
0.1
100
AcDbLine
 10
311.389343
 20
698.196106
 30
0.0
 11
307.389343
 21
698.196106
 31
0.0
210
0.0
220
0.0
230
1.0
  0
LINE
  5
BE
100
AcDbEntity
  8
0
370
    35
390
0
 62
     7
 48
0.45
100
AcDbLine
 10
311.389343
 20
698.196106
 30
0.0
 11
311.389343
 21
680.196106
 31
0.0
210
0.0
220
0.0
230
1.0
  0
LINE
  5
BF
100
AcDbEntity
  8
0
370
    35
390
0
 62
     7
 48
0.4
100
AcDbLine
 10
327.389343
 20
680.196106
 30
0.0
 11
311.389343
 21
680.196106
 31
0.0
210
0.0
220
0.0
230
1.0
  0
LINE
  5
C0
100
AcDbEntity
  8
0
370
    35
390
0
 62
     7
 48
0.05
100
AcDbLine
 10
327.389343
 20
678.196106
 30
0.0
 11
327.389343
 21
680.196106
 31
0.0
210
0.0
220
0.0
230
1.0
  0
LINE
  5
C1
100
AcDbEntity
  8
0
370
    35
390
0
 62
     7
100
AcDbLine
 10
357.389343
 20
678.196106
 30
0.0
 11
327.389343
 21
678.196106
 31
0.0
210
0.0
220
0.0
230
1.0
  0
LINE
  5
C2
100
AcDbEntity
  8
0
370
    35
390
0
 62
     7
 48
0.05
100
AcDbLine
 10
357.389343
 20
680.196106
 30
0.0
 11
357.389343
 21
678.196106
 31
0.0
210
0.0
220
0.0
230
1.0
  0
LINE
  5
C3
100
AcDbEntity
  8
0
370
    35
390
0
 62
     7
 48
0.4
100
AcDbLine
 10
373.389343
 20
680.196106
 30
0.0
 11
357.389343
 21
680.196106
 31
0.0
210
0.0
220
0.0
230
1.0
  0
CIRCLE
  5
C4
100
AcDbEntity
  8
0
370
    35
390
0
 62
     7
100
AcDbCircle
 10
326.479431
 20
697.286194
 30
0.0
 40
2.75
210
0.0
220
0.0
230
1.0
  0
CIRCLE
  5
C5
100
AcDbEntity
  8
0
370
    35
390
0
 62
     7
100
AcDbCircle
 10
326.479431
 20
729.106018
 30
0.0
 40
2.75
210
0.0
220
0.0
230
1.0
  0
CIRCLE
  5
C6
100
AcDbEntity
  8
0
370
    35
390
0
 62
     7
100
AcDbCircle
 10
358.299255
 20
729.106018
 30
0.0
 40
2.75
210
0.0
220
0.0
230
1.0
  0
CIRCLE
  5
C7
100
AcDbEntity
  8
0
370
    35
390
0
 62
     7
100
AcDbCircle
 10
358.299255
 20
697.286194
 30
0.0
 40
2.75
210
0.0
220
0.0
230
1.0
  0
CIRCLE
  5
C8
100
AcDbEntity
  8
0
370
    35
390
0
 62
     7
100
AcDbCircle
 10
317.889343
 20
713.196106
 30
0.0
 40
3.25
210
0.0
220
0.0
230
1.0
  0
CIRCLE
  5
C9
100
AcDbEntity
  8
0
370
    35
390
0
 62
     7
100
AcDbCircle
 10
342.389343
 20
737.696106
 30
0.0
 40
3.25
210
0.0
220
0.0
230
1.0
  0
CIRCLE
  5
CA
100
AcDbEntity
  8
0
370
    35
390
0
 62
     7
100
AcDbCircle
 10
366.889343
 20
713.196106
 30
0.0
 40
3.25
210
0.0
220
0.0
230
1.0
  0
CIRCLE
  5
CB
100
AcDbEntity
  8
0
370
    35
390
0
 62
     7
100
AcDbCircle
 10
342.389343
 20
688.696106
 30
0.0
 40
3.25
210
0.0
220
0.0
230
1.0
  0
LINE
  5
CC
100
AcDbEntity
  8
0
370
    35
390
0
 62
     7
100
AcDbLine
 10
202.045425
 20
551.733948
 30
0.0
 11
222.045425
 21
551.733948
 31
0.0
210
0.0
220
0.0
230
1.0
  0
LINE
  5
CD
100
AcDbEntity
  8
0
370
    35
390
0
 62
     7
 48
0.1
100
AcDbLine
 10
222.045425
 20
551.733948
 30
0.0
 11
222.045425
 21
555.733948
 31
0.0
210
0.0
220
0.0
230
1.0
  0
LINE
  5
CE
100
AcDbEntity
  8
0
370
    35
390
0
 62
     7
100
AcDbLine
 10
222.045425
 20
555.733948
 30
0.0
 11
252.045425
 21
555.733948
 31
0.0
210
0.0
220
0.0
230
1.0
  0
LINE
  5
CF
100
AcDbEntity
  8
0
370
    35
390
0
 62
     7
 48
0.1
100
AcDbLine
 10
252.045425
 20
555.733948
 30
0.0
 11
252.045425
 21
551.733948
 31
0.0
210
0.0
220
0.0
230
1.0
  0
LINE
  5
D0
100
AcDbEntity
  8
0
370
    35
390
0
 62
     7
 48
0.5
100
AcDbLine
 10
252.045425
 20
551.733948
 30
0.0
 11
272.04541
 21
551.733948
 31
0.0
210
0.0
220
0.0
230
1.0
  0
LINE
  5
D1
100
AcDbEntity
  8
0
370
    35
390
0
 62
     7
 48
0.375
100
AcDbLine
 10
272.04541
 20
551.733948
 30
0.0
 11
272.04541
 21
566.733948
 31
0.0
210
0.0
220
0.0
230
1.0
  0
LINE
  5
D2
100
AcDbEntity
  8
0
370
    35
390
0
 62
     7
 48
0.1
100
AcDbLine
 10
272.04541
 20
566.733948
 30
0.0
 11
268.04541
 21
566.733948
 31
0.0
210
0.0
220
0.0
230
1.0
  0
LINE
  5
D3
100
AcDbEntity
  8
0
370
    35
390
0
 62
     7
 48
0.375
100
AcDbLine
 10
268.04541
 20
566.733948
 30
0.0
 11
268.04541
 21
581.733948
 31
0.0
210
0.0
220
0.0
230
1.0
  0
LINE
  5
D4
100
AcDbEntity
  8
0
370
    35
390
0
 62
     7
 48
0.1
100
AcDbLine
 10
268.04541
 20
581.733948
 30
0.0
 11
272.04541
 21
581.733948
 31
0.0
210
0.0
220
0.0
230
1.0
  0
LINE
  5
D5
100
AcDbEntity
  8
0
370
    35
390
0
 62
     7
 48
0.375
100
AcDbLine
 10
272.04541
 20
581.733948
 30
0.0
 11
272.04541
 21
596.733948
 31
0.0
210
0.0
220
0.0
230
1.0
  0
LINE
  5
D6
100
AcDbEntity
  8
0
370
    35
390
0
 62
     7
 48
0.5
100
AcDbLine
 10
272.04541
 20
596.733948
 30
0.0
 11
252.045425
 21
596.733948
 31
0.0
210
0.0
220
0.0
230
1.0
  0
LINE
  5
D7
100
AcDbEntity
  8
0
370
    35
390
0
 62
     7
 48
0.1
100
AcDbLine
 10
252.045425
 20
596.733948
 30
0.0
 11
252.045425
 21
600.733948
 31
0.0
210
0.0
220
0.0
230
1.0
  0
LINE
  5
D8
100
AcDbEntity
  8
0
370
    35
390
0
 62
     7
100
AcDbLine
 10
252.045425
 20
600.733948
 30
0.0
 11
222.045425
 21
600.733948
 31
0.0
210
0.0
220
0.0
230
1.0
  0
LINE
  5
D9
100
AcDbEntity
  8
0
370
    35
390
0
 62
     7
 48
0.1
100
AcDbLine
 10
222.045425
 20
596.733948
 30
0.0
 11
222.045425
 21
600.733948
 31
0.0
210
0.0
220
0.0
230
1.0
  0
LINE
  5
DA
100
AcDbEntity
  8
0
370
    35
390
0
 62
     7
100
AcDbLine
 10
222.045425
 20
596.733948
 30
0.0
 11
202.045425
 21
596.733948
 31
0.0
210
0.0
220
0.0
230
1.0
  0
LINE
  5
DB
100
AcDbEntity
  8
0
370
    35
390
0
 62
     7
 48
0.375
100
AcDbLine
 10
202.045425
 20
596.733948
 30
0.0
 11
202.045425
 21
581.733948
 31
0.0
210
0.0
220
0.0
230
1.0
  0
LINE
  5
DC
100
AcDbEntity
  8
0
370
    35
390
0
 62
     7
 48
0.1
100
AcDbLine
 10
206.045425
 20
581.733948
 30
0.0
 11
202.045425
 21
581.733948
 31
0.0
210
0.0
220
0.0
230
1.0
  0
LINE
  5
DD
100
AcDbEntity
  8
0
370
    35
390
0
 62
     7
 48
0.375
100
AcDbLine
 10
206.045425
 20
566.733948
 30
0.0
 11
206.045425
 21
581.733948
 31
0.0
210
0.0
220
0.0
230
1.0
  0
LINE
  5
DE
100
AcDbEntity
  8
0
370
    35
390
0
 62
     7
 48
0.1
100
AcDbLine
 10
202.045425
 20
566.733948
 30
0.0
 11
206.045425
 21
566.733948
 31
0.0
210
0.0
220
0.0
230
1.0
  0
LINE
  5
DF
100
AcDbEntity
  8
0
370
    35
390
0
 62
     7
 48
0.375
100
AcDbLine
 10
202.045425
 20
566.733948
 30
0.0
 11
202.045425
 21
551.733948
 31
0.0
210
0.0
220
0.0
230
1.0
  0
LINE
  5
E0
100
AcDbEntity
  8
0
370
    35
390
0
 62
     7
 48
0.4
100
AcDbLine
 10
229.045425
 20
586.733948
 30
0.0
 11
245.045425
 21
586.733948
 31
0.0
210
0.0
220
0.0
230
1.0
  0
LINE
  5
E1
100
AcDbEntity
  8
0
370
    35
390
0
 62
     7
 48
0.125
100
AcDbLine
 10
245.045425
 20
581.733948
 30
0.0
 11
245.045425
 21
586.733948
 31
0.0
210
0.0
220
0.0
230
1.0
  0
LINE
  5
E2
100
AcDbEntity
  8
0
370
    35
390
0
 62
     7
 48
0.4
100
AcDbLine
 10
245.045425
 20
581.733948
 30
0.0
 11
229.045425
 21
581.733948
 31
0.0
210
0.0
220
0.0
230
1.0
  0
LINE
  5
E3
100
AcDbEntity
  8
0
370
    35
390
0
 62
     7
 48
0.125
100
AcDbLine
 10
229.045425
 20
586.733948
 30
0.0
 11
229.045425
 21
581.733948
 31
0.0
210
0.0
220
0.0
230
1.0
  0
LINE
  5
E4
100
AcDbEntity
  8
0
370
    35
390
0
 62
     7
100
AcDbLine
 10
202.045425
 20
600.733948
 30
0.0
 11
222.045425
 21
600.733948
 31
0.0
210
0.0
220
0.0
230
1.0
  0
LINE
  5
E5
100
AcDbEntity
  8
0
370
    35
390
0
 62
     7
 48
0.1
100
AcDbLine
 10
222.045425
 20
600.733948
 30
0.0
 11
222.045425
 21
604.733948
 31
0.0
210
0.0
220
0.0
230
1.0
  0
LINE
  5
E6
100
AcDbEntity
  8
0
370
    35
390
0
 62
     7
100
AcDbLine
 10
222.045425
 20
604.733948
 30
0.0
 11
252.045425
 21
604.733948
 31
0.0
210
0.0
220
0.0
230
1.0
  0
LINE
  5
E7
100
AcDbEntity
  8
0
370
    35
390
0
 62
     7
 48
0.1
100
AcDbLine
 10
252.045425
 20
604.733948
 30
0.0
 11
252.045425
 21
600.733948
 31
0.0
210
0.0
220
0.0
230
1.0
  0
LINE
  5
E8
100
AcDbEntity
  8
0
370
    35
390
0
 62
     7
 48
0.5
100
AcDbLine
 10
252.045425
 20
600.733948
 30
0.0
 11
272.04541
 21
600.733948
 31
0.0
210
0.0
220
0.0
230
1.0
  0
LINE
  5
E9
100
AcDbEntity
  8
0
370
    35
390
0
 62
     7
 48
0.375
100
AcDbLine
 10
272.04541
 20
600.733948
 30
0.0
 11
272.04541
 21
615.733948
 31
0.0
210
0.0
220
0.0
230
1.0
  0
LINE
  5
EA
100
AcDbEntity
  8
0
370
    35
390
0
 62
     7
 48
0.1
100
AcDbLine
 10
272.04541
 20
615.733948
 30
0.0
 11
268.04541
 21
615.733948
 31
0.0
210
0.0
220
0.0
230
1.0
  0
LINE
  5
EB
100
AcDbEntity
  8
0
370
    35
390
0
 62
     7
 48
0.375
100
AcDbLine
 10
268.04541
 20
615.733948
 30
0.0
 11
268.04541
 21
630.733948
 31
0.0
210
0.0
220
0.0
230
1.0
  0
LINE
  5
EC
100
AcDbEntity
  8
0
370
    35
390
0
 62
     7
 48
0.1
100
AcDbLine
 10
268.04541
 20
630.733948
 30
0.0
 11
272.04541
 21
630.733948
 31
0.0
210
0.0
220
0.0
230
1.0
  0
LINE
  5
ED
100
AcDbEntity
  8
0
370
    35
390
0
 62
     7
 48
0.375
100
AcDbLine
 10
272.04541
 20
630.733948
 30
0.0
 11
272.04541
 21
645.733948
 31
0.0
210
0.0
220
0.0
230
1.0
  0
LINE
  5
EE
100
AcDbEntity
  8
0
370
    35
390
0
 62
     7
 48
0.5
100
AcDbLine
 10
272.04541
 20
645.733948
 30
0.0
 11
252.045425
 21
645.733948
 31
0.0
210
0.0
220
0.0
230
1.0
  0
LINE
  5
EF
100
AcDbEntity
  8
0
370
    35
390
0
 62
     7
 48
0.1
100
AcDbLine
 10
252.045425
 20
645.733948
 30
0.0
 11
252.045425
 21
649.733948
 31
0.0
210
0.0
220
0.0
230
1.0
  0
LINE
  5
F0
100
AcDbEntity
  8
0
370
    35
390
0
 62
     7
100
AcDbLine
 10
252.045425
 20
649.733948
 30
0.0
 11
222.045425
 21
649.733948
 31
0.0
210
0.0
220
0.0
230
1.0
  0
LINE
  5
F1
100
AcDbEntity
  8
0
370
    35
390
0
 62
     7
 48
0.1
100
AcDbLine
 10
222.045425
 20
645.733948
 30
0.0
 11
222.045425
 21
649.733948
 31
0.0
210
0.0
220
0.0
230
1.0
  0
LINE
  5
F2
100
AcDbEntity
  8
0
370
    35
390
0
 62
     7
100
AcDbLine
 10
222.045425
 20
645.733948
 30
0.0
 11
202.045425
 21
645.733948
 31
0.0
210
0.0
220
0.0
230
1.0
  0
LINE
  5
F3
100
AcDbEntity
  8
0
370
    35
390
0
 62
     7
 48
0.375
100
AcDbLine
 10
202.045425
 20
645.733948
 30
0.0
 11
202.045425
 21
630.733948
 31
0.0
210
0.0
220
0.0
230
1.0
  0
LINE
  5
F4
100
AcDbEntity
  8
0
370
    35
390
0
 62
     7
 48
0.1
100
AcDbLine
 10
206.045425
 20
630.733948
 30
0.0
 11
202.045425
 21
630.733948
 31
0.0
210
0.0
220
0.0
230
1.0
  0
LINE
  5
F5
100
AcDbEntity
  8
0
370
    35
390
0
 62
     7
 48
0.375
100
AcDbLine
 10
206.045425
 20
615.733948
 30
0.0
 11
206.045425
 21
630.733948
 31
0.0
210
0.0
220
0.0
230
1.0
  0
LINE
  5
F6
100
AcDbEntity
  8
0
370
    35
390
0
 62
     7
 48
0.1
100
AcDbLine
 10
202.045425
 20
615.733948
 30
0.0
 11
206.045425
 21
615.733948
 31
0.0
210
0.0
220
0.0
230
1.0
  0
LINE
  5
F7
100
AcDbEntity
  8
0
370
    35
390
0
 62
     7
 48
0.375
100
AcDbLine
 10
202.045425
 20
615.733948
 30
0.0
 11
202.045425
 21
600.733948
 31
0.0
210
0.0
220
0.0
230
1.0
  0
LINE
  5
F8
100
AcDbEntity
  8
0
370
    35
390
0
 62
     7
 48
0.4
100
AcDbLine
 10
229.045425
 20
635.733948
 30
0.0
 11
245.045425
 21
635.733948
 31
0.0
210
0.0
220
0.0
230
1.0
  0
LINE
  5
F9
100
AcDbEntity
  8
0
370
    35
390
0
 62
     7
 48
0.125
100
AcDbLine
 10
245.045425
 20
630.733948
 30
0.0
 11
245.045425
 21
635.733948
 31
0.0
210
0.0
220
0.0
230
1.0
  0
LINE
  5
FA
100
AcDbEntity
  8
0
370
    35
390
0
 62
     7
 48
0.4
100
AcDbLine
 10
245.045425
 20
630.733948
 30
0.0
 11
229.045425
 21
630.733948
 31
0.0
210
0.0
220
0.0
230
1.0
  0
LINE
  5
FB
100
AcDbEntity
  8
0
370
    35
390
0
 62
     7
 48
0.125
100
AcDbLine
 10
229.045425
 20
635.733948
 30
0.0
 11
229.045425
 21
630.733948
 31
0.0
210
0.0
220
0.0
230
1.0
  0
LINE
  5
FC
100
AcDbEntity
  8
0
370
    35
390
0
 62
     7
100
AcDbLine
 10
378.219604
 20
597.235107
 30
0.0
 11
378.219604
 21
577.235107
 31
0.0
210
0.0
220
0.0
230
1.0
  0
LINE
  5
FD
100
AcDbEntity
  8
0
370
    35
390
0
 62
     7
 48
0.1
100
AcDbLine
 10
378.219604
 20
577.235107
 30
0.0
 11
382.219604
 21
577.235107
 31
0.0
210
0.0
220
0.0
230
1.0
  0
LINE
  5
FE
100
AcDbEntity
  8
0
370
    35
390
0
 62
     7
100
AcDbLine
 10
382.219604
 20
577.235107
 30
0.0
 11
382.219604
 21
547.235107
 31
0.0
210
0.0
220
0.0
230
1.0
  0
LINE
  5
FF
100
AcDbEntity
  8
0
370
    35
390
0
 62
     7
 48
0.1
100
AcDbLine
 10
382.219604
 20
547.235107
 30
0.0
 11
378.219604
 21
547.235107
 31
0.0
210
0.0
220
0.0
230
1.0
  0
LINE
  5
100
100
AcDbEntity
  8
0
370
    35
390
0
 62
     7
100
AcDbLine
 10
378.219604
 20
547.235107
 30
0.0
 11
378.219604
 21
527.235107
 31
0.0
210
0.0
220
0.0
230
1.0
  0
LINE
  5
101
100
AcDbEntity
  8
0
370
    35
390
0
 62
     7
100
AcDbLine
 10
398.219604
 20
527.235107
 30
0.0
 11
378.219604
 21
527.235107
 31
0.0
210
0.0
220
0.0
230
1.0
  0
LINE
  5
102
100
AcDbEntity
  8
0
370
    35
390
0
 62
     7
 48
0.05
100
AcDbLine
 10
398.219604
 20
527.235107
 30
0.0
 11
398.219604
 21
529.235107
 31
0.0
210
0.0
220
0.0
230
1.0
  0
LINE
  5
103
100
AcDbEntity
  8
0
370
    35
390
0
 62
     7
100
AcDbLine
 10
398.219604
 20
529.235107
 30
0.0
 11
428.219604
 21
529.235107
 31
0.0
210
0.0
220
0.0
230
1.0
  0
LINE
  5
104
100
AcDbEntity
  8
0
370
    35
390
0
 62
     7
 48
0.05
100
AcDbLine
 10
428.219604
 20
529.235107
 30
0.0
 11
428.219604
 21
527.235107
 31
0.0
210
0.0
220
0.0
230
1.0
  0
LINE
  5
105
100
AcDbEntity
  8
0
370
    35
390
0
 62
     7
100
AcDbLine
 10
448.219604
 20
527.235107
 30
0.0
 11
428.219604
 21
527.235107
 31
0.0
210
0.0
220
0.0
230
1.0
  0
LINE
  5
106
100
AcDbEntity
  8
0
370
    35
390
0
 62
     7
100
AcDbLine
 10
448.219604
 20
527.235107
 30
0.0
 11
448.219604
 21
547.235107
 31
0.0
210
0.0
220
0.0
230
1.0
  0
LINE
  5
107
100
AcDbEntity
  8
0
370
    35
390
0
 62
     7
 48
0.1
100
AcDbLine
 10
444.219604
 20
547.235107
 30
0.0
 11
448.219604
 21
547.235107
 31
0.0
210
0.0
220
0.0
230
1.0
  0
LINE
  5
108
100
AcDbEntity
  8
0
370
    35
390
0
 62
     7
100
AcDbLine
 10
444.219604
 20
577.235107
 30
0.0
 11
444.219604
 21
547.235107
 31
0.0
210
0.0
220
0.0
230
1.0
  0
LINE
  5
109
100
AcDbEntity
  8
0
370
    35
390
0
 62
     7
 48
0.1
100
AcDbLine
 10
448.219604
 20
577.235107
 30
0.0
 11
444.219604
 21
577.235107
 31
0.0
210
0.0
220
0.0
230
1.0
  0
LINE
  5
10A
100
AcDbEntity
  8
0
370
    35
390
0
 62
     7
100
AcDbLine
 10
448.219604
 20
577.235107
 30
0.0
 11
448.219604
 21
597.235107
 31
0.0
210
0.0
220
0.0
230
1.0
  0
LINE
  5
10B
100
AcDbEntity
  8
0
370
    35
390
0
 62
     7
100
AcDbLine
 10
428.219604
 20
597.235107
 30
0.0
 11
448.219604
 21
597.235107
 31
0.0
210
0.0
220
0.0
230
1.0
  0
LINE
  5
10C
100
AcDbEntity
  8
0
370
    35
390
0
 62
     7
 48
0.05
100
AcDbLine
 10
428.219604
 20
595.235107
 30
0.0
 11
428.219604
 21
597.235107
 31
0.0
210
0.0
220
0.0
230
1.0
  0
LINE
  5
10D
100
AcDbEntity
  8
0
370
    35
390
0
 62
     7
100
AcDbLine
 10
398.219604
 20
595.235107
 30
0.0
 11
428.219604
 21
595.235107
 31
0.0
210
0.0
220
0.0
230
1.0
  0
LINE
  5
10E
100
AcDbEntity
  8
0
370
    35
390
0
 62
     7
 48
0.05
100
AcDbLine
 10
398.219604
 20
597.235107
 30
0.0
 11
398.219604
 21
595.235107
 31
0.0
210
0.0
220
0.0
230
1.0
  0
LINE
  5
10F
100
AcDbEntity
  8
0
370
    35
390
0
 62
     7
100
AcDbLine
 10
378.219604
 20
597.235107
 30
0.0
 11
398.219604
 21
597.235107
 31
0.0
210
0.0
220
0.0
230
1.0
  0
CIRCLE
  5
110
100
AcDbEntity
  8
0
370
    35
390
0
 62
     7
100
AcDbCircle
 10
407.562744
 20
567.891968
 30
0.0
 40
1.5
210
0.0
220
0.0
230
1.0
  0
CIRCLE
  5
111
100
AcDbEntity
  8
0
370
    35
390
0
 62
     7
100
AcDbCircle
 10
418.876465
 20
556.578247
 30
0.0
 40
1.5
210
0.0
220
0.0
230
1.0
  0
CIRCLE
  5
112
100
AcDbEntity
  8
0
370
    35
390
0
 62
     7
100
AcDbCircle
 10
419.937134
 20
568.952637
 30
0.0
 40
1.5
210
0.0
220
0.0
230
1.0
  0
CIRCLE
  5
113
100
AcDbEntity
  8
0
370
    35
390
0
 62
     7
100
AcDbCircle
 10
406.502075
 20
555.517578
 30
0.0
 40
1.5
210
0.0
220
0.0
230
1.0
  0
CIRCLE
  5
114
100
AcDbEntity
  8
0
370
    35
390
0
 62
     7
100
AcDbCircle
 10
413.219604
 20
562.235107
 30
0.0
 40
5.0
210
0.0
220
0.0
230
1.0
  0
CIRCLE
  5
115
100
AcDbEntity
  8
0
370
    35
390
0
 62
     7
100
AcDbCircle
 10
397.309692
 20
546.325195
 30
0.0
 40
4.0
210
0.0
220
0.0
230
1.0
  0
CIRCLE
  5
116
100
AcDbEntity
  8
0
370
    35
390
0
 62
     7
100
AcDbCircle
 10
397.309692
 20
578.14502
 30
0.0
 40
4.0
210
0.0
220
0.0
230
1.0
  0
CIRCLE
  5
117
100
AcDbEntity
  8
0
370
    35
390
0
 62
     7
100
AcDbCircle
 10
429.129517
 20
578.14502
 30
0.0
 40
4.0
210
0.0
220
0.0
230
1.0
  0
CIRCLE
  5
118
100
AcDbEntity
  8
0
370
    35
390
0
 62
     7
100
AcDbCircle
 10
429.129517
 20
546.325195
 30
0.0
 40
4.0
210
0.0
220
0.0
230
1.0
  0
CIRCLE
  5
119
100
AcDbEntity
  8
0
370
    35
390
0
 62
     7
100
AcDbCircle
 10
388.719604
 20
562.235107
 30
0.0
 40
3.5
210
0.0
220
0.0
230
1.0
  0
CIRCLE
  5
11A
100
AcDbEntity
  8
0
370
    35
390
0
 62
     7
100
AcDbCircle
 10
413.219604
 20
586.735107
 30
0.0
 40
3.5
210
0.0
220
0.0
230
1.0
  0
CIRCLE
  5
11B
100
AcDbEntity
  8
0
370
    35
390
0
 62
     7
100
AcDbCircle
 10
437.719604
 20
562.235107
 30
0.0
 40
3.5
210
0.0
220
0.0
230
1.0
  0
CIRCLE
  5
11C
100
AcDbEntity
  8
0
370
    35
390
0
 62
     7
100
AcDbCircle
 10
413.219604
 20
537.735107
 30
0.0
 40
3.5
210
0.0
220
0.0
230
1.0
  0
LINE
  5
11D
100
AcDbEntity
  8
0
370
    35
390
0
 62
     7
100
AcDbLine
 10
307.219604
 20
597.235107
 30
0.0
 11
307.219604
 21
577.235107
 31
0.0
210
0.0
220
0.0
230
1.0
  0
LINE
  5
11E
100
AcDbEntity
  8
0
370
    35
390
0
 62
     7
 48
0.1
100
AcDbLine
 10
307.219604
 20
577.235107
 30
0.0
 11
311.219604
 21
577.235107
 31
0.0
210
0.0
220
0.0
230
1.0
  0
LINE
  5
11F
100
AcDbEntity
  8
0
370
    35
390
0
 62
     7
100
AcDbLine
 10
311.219604
 20
577.235107
 30
0.0
 11
311.219604
 21
547.235107
 31
0.0
210
0.0
220
0.0
230
1.0
  0
LINE
  5
120
100
AcDbEntity
  8
0
370
    35
390
0
 62
     7
 48
0.1
100
AcDbLine
 10
311.219604
 20
547.235107
 30
0.0
 11
307.219604
 21
547.235107
 31
0.0
210
0.0
220
0.0
230
1.0
  0
LINE
  5
121
100
AcDbEntity
  8
0
370
    35
390
0
 62
     7
100
AcDbLine
 10
307.219604
 20
547.235107
 30
0.0
 11
307.219604
 21
527.235107
 31
0.0
210
0.0
220
0.0
230
1.0
  0
LINE
  5
122
100
AcDbEntity
  8
0
370
    35
390
0
 62
     7
100
AcDbLine
 10
327.219604
 20
527.235107
 30
0.0
 11
307.219604
 21
527.235107
 31
0.0
210
0.0
220
0.0
230
1.0
  0
LINE
  5
123
100
AcDbEntity
  8
0
370
    35
390
0
 62
     7
 48
0.05
100
AcDbLine
 10
327.219604
 20
527.235107
 30
0.0
 11
327.219604
 21
529.235107
 31
0.0
210
0.0
220
0.0
230
1.0
  0
LINE
  5
124
100
AcDbEntity
  8
0
370
    35
390
0
 62
     7
100
AcDbLine
 10
327.219604
 20
529.235107
 30
0.0
 11
357.219604
 21
529.235107
 31
0.0
210
0.0
220
0.0
230
1.0
  0
LINE
  5
125
100
AcDbEntity
  8
0
370
    35
390
0
 62
     7
 48
0.05
100
AcDbLine
 10
357.219604
 20
529.235107
 30
0.0
 11
357.219604
 21
527.235107
 31
0.0
210
0.0
220
0.0
230
1.0
  0
LINE
  5
126
100
AcDbEntity
  8
0
370
    35
390
0
 62
     7
100
AcDbLine
 10
377.219604
 20
527.235107
 30
0.0
 11
357.219604
 21
527.235107
 31
0.0
210
0.0
220
0.0
230
1.0
  0
LINE
  5
127
100
AcDbEntity
  8
0
370
    35
390
0
 62
     7
100
AcDbLine
 10
377.219604
 20
527.235107
 30
0.0
 11
377.219604
 21
547.235107
 31
0.0
210
0.0
220
0.0
230
1.0
  0
LINE
  5
128
100
AcDbEntity
  8
0
370
    35
390
0
 62
     7
 48
0.1
100
AcDbLine
 10
373.219604
 20
547.235107
 30
0.0
 11
377.219604
 21
547.235107
 31
0.0
210
0.0
220
0.0
230
1.0
  0
LINE
  5
129
100
AcDbEntity
  8
0
370
    35
390
0
 62
     7
100
AcDbLine
 10
373.219604
 20
577.235107
 30
0.0
 11
373.219604
 21
547.235107
 31
0.0
210
0.0
220
0.0
230
1.0
  0
LINE
  5
12A
100
AcDbEntity
  8
0
370
    35
390
0
 62
     7
 48
0.1
100
AcDbLine
 10
377.219604
 20
577.235107
 30
0.0
 11
373.219604
 21
577.235107
 31
0.0
210
0.0
220
0.0
230
1.0
  0
LINE
  5
12B
100
AcDbEntity
  8
0
370
    35
390
0
 62
     7
100
AcDbLine
 10
377.219604
 20
577.235107
 30
0.0
 11
377.219604
 21
597.235107
 31
0.0
210
0.0
220
0.0
230
1.0
  0
LINE
  5
12C
100
AcDbEntity
  8
0
370
    35
390
0
 62
     7
100
AcDbLine
 10
357.219604
 20
597.235107
 30
0.0
 11
377.219604
 21
597.235107
 31
0.0
210
0.0
220
0.0
230
1.0
  0
LINE
  5
12D
100
AcDbEntity
  8
0
370
    35
390
0
 62
     7
 48
0.05
100
AcDbLine
 10
357.219604
 20
595.235107
 30
0.0
 11
357.219604
 21
597.235107
 31
0.0
210
0.0
220
0.0
230
1.0
  0
LINE
  5
12E
100
AcDbEntity
  8
0
370
    35
390
0
 62
     7
100
AcDbLine
 10
327.219604
 20
595.235107
 30
0.0
 11
357.219604
 21
595.235107
 31
0.0
210
0.0
220
0.0
230
1.0
  0
LINE
  5
12F
100
AcDbEntity
  8
0
370
    35
390
0
 62
     7
 48
0.05
100
AcDbLine
 10
327.219604
 20
597.235107
 30
0.0
 11
327.219604
 21
595.235107
 31
0.0
210
0.0
220
0.0
230
1.0
  0
LINE
  5
130
100
AcDbEntity
  8
0
370
    35
390
0
 62
     7
100
AcDbLine
 10
307.219604
 20
597.235107
 30
0.0
 11
327.219604
 21
597.235107
 31
0.0
210
0.0
220
0.0
230
1.0
  0
CIRCLE
  5
131
100
AcDbEntity
  8
0
370
    35
390
0
 62
     7
100
AcDbCircle
 10
336.562744
 20
567.891968
 30
0.0
 40
1.5
210
0.0
220
0.0
230
1.0
  0
CIRCLE
  5
132
100
AcDbEntity
  8
0
370
    35
390
0
 62
     7
100
AcDbCircle
 10
347.876465
 20
556.578247
 30
0.0
 40
1.5
210
0.0
220
0.0
230
1.0
  0
CIRCLE
  5
133
100
AcDbEntity
  8
0
370
    35
390
0
 62
     7
100
AcDbCircle
 10
348.937134
 20
568.952637
 30
0.0
 40
1.5
210
0.0
220
0.0
230
1.0
  0
CIRCLE
  5
134
100
AcDbEntity
  8
0
370
    35
390
0
 62
     7
100
AcDbCircle
 10
335.502075
 20
555.517578
 30
0.0
 40
1.5
210
0.0
220
0.0
230
1.0
  0
CIRCLE
  5
135
100
AcDbEntity
  8
0
370
    35
390
0
 62
     7
100
AcDbCircle
 10
342.219604
 20
562.235107
 30
0.0
 40
5.0
210
0.0
220
0.0
230
1.0
  0
CIRCLE
  5
136
100
AcDbEntity
  8
0
370
    35
390
0
 62
     7
100
AcDbCircle
 10
326.309692
 20
546.325195
 30
0.0
 40
4.0
210
0.0
220
0.0
230
1.0
  0
CIRCLE
  5
137
100
AcDbEntity
  8
0
370
    35
390
0
 62
     7
100
AcDbCircle
 10
326.309692
 20
578.14502
 30
0.0
 40
4.0
210
0.0
220
0.0
230
1.0
  0
CIRCLE
  5
138
100
AcDbEntity
  8
0
370
    35
390
0
 62
     7
100
AcDbCircle
 10
358.129517
 20
578.14502
 30
0.0
 40
4.0
210
0.0
220
0.0
230
1.0
  0
CIRCLE
  5
139
100
AcDbEntity
  8
0
370
    35
390
0
 62
     7
100
AcDbCircle
 10
358.129517
 20
546.325195
 30
0.0
 40
4.0
210
0.0
220
0.0
230
1.0
  0
CIRCLE
  5
13A
100
AcDbEntity
  8
0
370
    35
390
0
 62
     7
100
AcDbCircle
 10
317.719604
 20
562.235107
 30
0.0
 40
3.5
210
0.0
220
0.0
230
1.0
  0
CIRCLE
  5
13B
100
AcDbEntity
  8
0
370
    35
390
0
 62
     7
100
AcDbCircle
 10
342.219604
 20
586.735107
 30
0.0
 40
3.5
210
0.0
220
0.0
230
1.0
  0
CIRCLE
  5
13C
100
AcDbEntity
  8
0
370
    35
390
0
 62
     7
100
AcDbCircle
 10
366.719604
 20
562.235107
 30
0.0
 40
3.5
210
0.0
220
0.0
230
1.0
  0
CIRCLE
  5
13D
100
AcDbEntity
  8
0
370
    35
390
0
 62
     7
100
AcDbCircle
 10
342.219604
 20
537.735107
 30
0.0
 40
3.5
210
0.0
220
0.0
230
1.0
  0
LINE
  5
13E
100
AcDbEntity
  8
0
370
    35
390
0
 62
     7
 48
0.05
100
AcDbLine
 10
450.15741
 20
563.650818
 30
0.0
 11
452.15741
 21
563.650818
 31
0.0
210
0.0
220
0.0
230
1.0
  0
LINE
  5
13F
100
AcDbEntity
  8
0
370
    35
390
0
 62
     7
 48
0.375
100
AcDbLine
 10
452.15741
 20
563.650818
 30
0.0
 11
452.15741
 21
548.650818
 31
0.0
210
0.0
220
0.0
230
1.0
  0
LINE
  5
140
100
AcDbEntity
  8
0
370
    35
390
0
 62
     7
 48
0.45
100
AcDbLine
 10
452.15741
 20
548.650818
 30
0.0
 11
470.15741
 21
548.650818
 31
0.0
210
0.0
220
0.0
230
1.0
  0
LINE
  5
141
100
AcDbEntity
  8
0
370
    35
390
0
 62
     7
 48
0.1
100
AcDbLine
 10
470.15741
 20
548.650818
 30
0.0
 11
470.15741
 21
552.650818
 31
0.0
210
0.0
220
0.0
230
1.0
  0
LINE
  5
142
100
AcDbEntity
  8
0
370
    35
390
0
 62
     7
100
AcDbLine
 10
470.15741
 20
552.650818
 30
0.0
 11
500.15741
 21
552.650818
 31
0.0
210
0.0
220
0.0
230
1.0
  0
LINE
  5
143
100
AcDbEntity
  8
0
370
    35
390
0
 62
     7
 48
0.1
100
AcDbLine
 10
500.15741
 20
552.650818
 30
0.0
 11
500.15741
 21
548.650818
 31
0.0
210
0.0
220
0.0
230
1.0
  0
LINE
  5
144
100
AcDbEntity
  8
0
370
    35
390
0
 62
     7
 48
0.45
100
AcDbLine
 10
500.15741
 20
548.650818
 30
0.0
 11
518.15741
 21
548.650818
 31
0.0
210
0.0
220
0.0
230
1.0
  0
LINE
  5
145
100
AcDbEntity
  8
0
370
    35
390
0
 62
     7
 48
0.375
100
AcDbLine
 10
518.15741
 20
548.650818
 30
0.0
 11
518.15741
 21
563.650818
 31
0.0
210
0.0
220
0.0
230
1.0
  0
LINE
  5
146
100
AcDbEntity
  8
0
370
    35
390
0
 62
     7
 48
0.05
100
AcDbLine
 10
518.15741
 20
563.650818
 30
0.0
 11
520.15741
 21
563.650818
 31
0.0
210
0.0
220
0.0
230
1.0
  0
LINE
  5
147
100
AcDbEntity
  8
0
370
    35
390
0
 62
     7
 48
0.375
100
AcDbLine
 10
520.15741
 20
578.650818
 30
0.0
 11
520.15741
 21
563.650818
 31
0.0
210
0.0
220
0.0
230
1.0
  0
LINE
  5
148
100
AcDbEntity
  8
0
370
    35
390
0
 62
     7
 48
0.05
100
AcDbLine
 10
518.15741
 20
578.650818
 30
0.0
 11
520.15741
 21
578.650818
 31
0.0
210
0.0
220
0.0
230
1.0
  0
LINE
  5
149
100
AcDbEntity
  8
0
370
    35
390
0
 62
     7
 48
0.375
100
AcDbLine
 10
518.15741
 20
578.650818
 30
0.0
 11
518.15741
 21
593.650818
 31
0.0
210
0.0
220
0.0
230
1.0
  0
LINE
  5
14A
100
AcDbEntity
  8
0
370
    35
390
0
 62
     7
 48
0.45
100
AcDbLine
 10
518.15741
 20
593.650818
 30
0.0
 11
500.15741
 21
593.650818
 31
0.0
210
0.0
220
0.0
230
1.0
  0
LINE
  5
14B
100
AcDbEntity
  8
0
370
    35
390
0
 62
     7
 48
0.1
100
AcDbLine
 10
500.15741
 20
597.650818
 30
0.0
 11
500.15741
 21
593.650818
 31
0.0
210
0.0
220
0.0
230
1.0
  0
LINE
  5
14C
100
AcDbEntity
  8
0
370
    35
390
0
 62
     7
100
AcDbLine
 10
470.15741
 20
597.650818
 30
0.0
 11
500.15741
 21
597.650818
 31
0.0
210
0.0
220
0.0
230
1.0
  0
LINE
  5
14D
100
AcDbEntity
  8
0
370
    35
390
0
 62
     7
 48
0.1
100
AcDbLine
 10
470.15741
 20
593.650818
 30
0.0
 11
470.15741
 21
597.650818
 31
0.0
210
0.0
220
0.0
230
1.0
  0
LINE
  5
14E
100
AcDbEntity
  8
0
370
    35
390
0
 62
     7
 48
0.45
100
AcDbLine
 10
470.15741
 20
593.650818
 30
0.0
 11
452.15741
 21
593.650818
 31
0.0
210
0.0
220
0.0
230
1.0
  0
LINE
  5
14F
100
AcDbEntity
  8
0
370
    35
390
0
 62
     7
 48
0.375
100
AcDbLine
 10
452.15741
 20
578.650818
 30
0.0
 11
452.15741
 21
593.650818
 31
0.0
210
0.0
220
0.0
230
1.0
  0
LINE
  5
150
100
AcDbEntity
  8
0
370
    35
390
0
 62
     7
 48
0.05
100
AcDbLine
 10
450.15741
 20
578.650818
 30
0.0
 11
452.15741
 21
578.650818
 31
0.0
210
0.0
220
0.0
230
1.0
  0
LINE
  5
151
100
AcDbEntity
  8
0
370
    35
390
0
 62
     7
 48
0.375
100
AcDbLine
 10
450.15741
 20
563.650818
 30
0.0
 11
450.15741
 21
578.650818
 31
0.0
210
0.0
220
0.0
230
1.0
  0
LINE
  5
152
100
AcDbEntity
  8
0
370
    35
390
0
 62
     7
 48
0.05
100
AcDbLine
 10
450.15741
 20
613.650818
 30
0.0
 11
452.15741
 21
613.650818
 31
0.0
210
0.0
220
0.0
230
1.0
  0
LINE
  5
153
100
AcDbEntity
  8
0
370
    35
390
0
 62
     7
 48
0.375
100
AcDbLine
 10
452.15741
 20
613.650818
 30
0.0
 11
452.15741
 21
598.650818
 31
0.0
210
0.0
220
0.0
230
1.0
  0
LINE
  5
154
100
AcDbEntity
  8
0
370
    35
390
0
 62
     7
 48
0.45
100
AcDbLine
 10
452.15741
 20
598.650818
 30
0.0
 11
470.15741
 21
598.650818
 31
0.0
210
0.0
220
0.0
230
1.0
  0
LINE
  5
155
100
AcDbEntity
  8
0
370
    35
390
0
 62
     7
 48
0.1
100
AcDbLine
 10
470.15741
 20
598.650818
 30
0.0
 11
470.15741
 21
602.650818
 31
0.0
210
0.0
220
0.0
230
1.0
  0
LINE
  5
156
100
AcDbEntity
  8
0
370
    35
390
0
 62
     7
100
AcDbLine
 10
470.15741
 20
602.650818
 30
0.0
 11
500.15741
 21
602.650818
 31
0.0
210
0.0
220
0.0
230
1.0
  0
LINE
  5
157
100
AcDbEntity
  8
0
370
    35
390
0
 62
     7
 48
0.1
100
AcDbLine
 10
500.15741
 20
602.650818
 30
0.0
 11
500.15741
 21
598.650818
 31
0.0
210
0.0
220
0.0
230
1.0
  0
LINE
  5
158
100
AcDbEntity
  8
0
370
    35
390
0
 62
     7
 48
0.45
100
AcDbLine
 10
500.15741
 20
598.650818
 30
0.0
 11
518.15741
 21
598.650818
 31
0.0
210
0.0
220
0.0
230
1.0
  0
LINE
  5
159
100
AcDbEntity
  8
0
370
    35
390
0
 62
     7
 48
0.375
100
AcDbLine
 10
518.15741
 20
598.650818
 30
0.0
 11
518.15741
 21
613.650818
 31
0.0
210
0.0
220
0.0
230
1.0
  0
LINE
  5
15A
100
AcDbEntity
  8
0
370
    35
390
0
 62
     7
 48
0.05
100
AcDbLine
 10
518.15741
 20
613.650818
 30
0.0
 11
520.15741
 21
613.650818
 31
0.0
210
0.0
220
0.0
230
1.0
  0
LINE
  5
15B
100
AcDbEntity
  8
0
370
    35
390
0
 62
     7
 48
0.375
100
AcDbLine
 10
520.15741
 20
628.650818
 30
0.0
 11
520.15741
 21
613.650818
 31
0.0
210
0.0
220
0.0
230
1.0
  0
LINE
  5
15C
100
AcDbEntity
  8
0
370
    35
390
0
 62
     7
 48
0.05
100
AcDbLine
 10
518.15741
 20
628.650818
 30
0.0
 11
520.15741
 21
628.650818
 31
0.0
210
0.0
220
0.0
230
1.0
  0
LINE
  5
15D
100
AcDbEntity
  8
0
370
    35
390
0
 62
     7
 48
0.375
100
AcDbLine
 10
518.15741
 20
628.650818
 30
0.0
 11
518.15741
 21
643.650818
 31
0.0
210
0.0
220
0.0
230
1.0
  0
LINE
  5
15E
100
AcDbEntity
  8
0
370
    35
390
0
 62
     7
 48
0.45
100
AcDbLine
 10
518.15741
 20
643.650818
 30
0.0
 11
500.15741
 21
643.650818
 31
0.0
210
0.0
220
0.0
230
1.0
  0
LINE
  5
15F
100
AcDbEntity
  8
0
370
    35
390
0
 62
     7
 48
0.1
100
AcDbLine
 10
500.15741
 20
647.650818
 30
0.0
 11
500.15741
 21
643.650818
 31
0.0
210
0.0
220
0.0
230
1.0
  0
LINE
  5
160
100
AcDbEntity
  8
0
370
    35
390
0
 62
     7
100
AcDbLine
 10
470.15741
 20
647.650818
 30
0.0
 11
500.15741
 21
647.650818
 31
0.0
210
0.0
220
0.0
230
1.0
  0
LINE
  5
161
100
AcDbEntity
  8
0
370
    35
390
0
 62
     7
 48
0.1
100
AcDbLine
 10
470.15741
 20
643.650818
 30
0.0
 11
470.15741
 21
647.650818
 31
0.0
210
0.0
220
0.0
230
1.0
  0
LINE
  5
162
100
AcDbEntity
  8
0
370
    35
390
0
 62
     7
 48
0.45
100
AcDbLine
 10
470.15741
 20
643.650818
 30
0.0
 11
452.15741
 21
643.650818
 31
0.0
210
0.0
220
0.0
230
1.0
  0
LINE
  5
163
100
AcDbEntity
  8
0
370
    35
390
0
 62
     7
 48
0.375
100
AcDbLine
 10
452.15741
 20
628.650818
 30
0.0
 11
452.15741
 21
643.650818
 31
0.0
210
0.0
220
0.0
230
1.0
  0
LINE
  5
164
100
AcDbEntity
  8
0
370
    35
390
0
 62
     7
 48
0.05
100
AcDbLine
 10
450.15741
 20
628.650818
 30
0.0
 11
452.15741
 21
628.650818
 31
0.0
210
0.0
220
0.0
230
1.0
  0
LINE
  5
165
100
AcDbEntity
  8
0
370
    35
390
0
 62
     7
 48
0.375
100
AcDbLine
 10
450.15741
 20
613.650818
 30
0.0
 11
450.15741
 21
628.650818
 31
0.0
210
0.0
220
0.0
230
1.0
  0
LINE
  5
166
100
AcDbEntity
  8
0
370
    35
390
0
 62
     7
 48
0.05
100
AcDbLine
 10
450.15741
 20
663.650818
 30
0.0
 11
452.15741
 21
663.650818
 31
0.0
210
0.0
220
0.0
230
1.0
  0
LINE
  5
167
100
AcDbEntity
  8
0
370
    35
390
0
 62
     7
 48
0.375
100
AcDbLine
 10
452.15741
 20
663.650818
 30
0.0
 11
452.15741
 21
648.650818
 31
0.0
210
0.0
220
0.0
230
1.0
  0
LINE
  5
168
100
AcDbEntity
  8
0
370
    35
390
0
 62
     7
 48
0.45
100
AcDbLine
 10
452.15741
 20
648.650818
 30
0.0
 11
470.15741
 21
648.650818
 31
0.0
210
0.0
220
0.0
230
1.0
  0
LINE
  5
169
100
AcDbEntity
  8
0
370
    35
390
0
 62
     7
 48
0.1
100
AcDbLine
 10
470.15741
 20
648.650818
 30
0.0
 11
470.15741
 21
652.650818
 31
0.0
210
0.0
220
0.0
230
1.0
  0
LINE
  5
16A
100
AcDbEntity
  8
0
370
    35
390
0
 62
     7
100
AcDbLine
 10
470.15741
 20
652.650818
 30
0.0
 11
500.15741
 21
652.650818
 31
0.0
210
0.0
220
0.0
230
1.0
  0
LINE
  5
16B
100
AcDbEntity
  8
0
370
    35
390
0
 62
     7
 48
0.1
100
AcDbLine
 10
500.15741
 20
652.650818
 30
0.0
 11
500.15741
 21
648.650818
 31
0.0
210
0.0
220
0.0
230
1.0
  0
LINE
  5
16C
100
AcDbEntity
  8
0
370
    35
390
0
 62
     7
 48
0.45
100
AcDbLine
 10
500.15741
 20
648.650818
 30
0.0
 11
518.15741
 21
648.650818
 31
0.0
210
0.0
220
0.0
230
1.0
  0
LINE
  5
16D
100
AcDbEntity
  8
0
370
    35
390
0
 62
     7
 48
0.375
100
AcDbLine
 10
518.15741
 20
648.650818
 30
0.0
 11
518.15741
 21
663.650818
 31
0.0
210
0.0
220
0.0
230
1.0
  0
LINE
  5
16E
100
AcDbEntity
  8
0
370
    35
390
0
 62
     7
 48
0.05
100
AcDbLine
 10
518.15741
 20
663.650818
 30
0.0
 11
520.15741
 21
663.650818
 31
0.0
210
0.0
220
0.0
230
1.0
  0
LINE
  5
16F
100
AcDbEntity
  8
0
370
    35
390
0
 62
     7
 48
0.375
100
AcDbLine
 10
520.15741
 20
678.650818
 30
0.0
 11
520.15741
 21
663.650818
 31
0.0
210
0.0
220
0.0
230
1.0
  0
LINE
  5
170
100
AcDbEntity
  8
0
370
    35
390
0
 62
     7
 48
0.05
100
AcDbLine
 10
518.15741
 20
678.650818
 30
0.0
 11
520.15741
 21
678.650818
 31
0.0
210
0.0
220
0.0
230
1.0
  0
LINE
  5
171
100
AcDbEntity
  8
0
370
    35
390
0
 62
     7
 48
0.375
100
AcDbLine
 10
518.15741
 20
678.650818
 30
0.0
 11
518.15741
 21
693.650818
 31
0.0
210
0.0
220
0.0
230
1.0
  0
LINE
  5
172
100
AcDbEntity
  8
0
370
    35
390
0
 62
     7
 48
0.45
100
AcDbLine
 10
518.15741
 20
693.650818
 30
0.0
 11
500.15741
 21
693.650818
 31
0.0
210
0.0
220
0.0
230
1.0
  0
LINE
  5
173
100
AcDbEntity
  8
0
370
    35
390
0
 62
     7
 48
0.1
100
AcDbLine
 10
500.15741
 20
697.650818
 30
0.0
 11
500.15741
 21
693.650818
 31
0.0
210
0.0
220
0.0
230
1.0
  0
LINE
  5
174
100
AcDbEntity
  8
0
370
    35
390
0
 62
     7
100
AcDbLine
 10
470.15741
 20
697.650818
 30
0.0
 11
500.15741
 21
697.650818
 31
0.0
210
0.0
220
0.0
230
1.0
  0
LINE
  5
175
100
AcDbEntity
  8
0
370
    35
390
0
 62
     7
 48
0.1
100
AcDbLine
 10
470.15741
 20
693.650818
 30
0.0
 11
470.15741
 21
697.650818
 31
0.0
210
0.0
220
0.0
230
1.0
  0
LINE
  5
176
100
AcDbEntity
  8
0
370
    35
390
0
 62
     7
 48
0.45
100
AcDbLine
 10
470.15741
 20
693.650818
 30
0.0
 11
452.15741
 21
693.650818
 31
0.0
210
0.0
220
0.0
230
1.0
  0
LINE
  5
177
100
AcDbEntity
  8
0
370
    35
390
0
 62
     7
 48
0.375
100
AcDbLine
 10
452.15741
 20
678.650818
 30
0.0
 11
452.15741
 21
693.650818
 31
0.0
210
0.0
220
0.0
230
1.0
  0
LINE
  5
178
100
AcDbEntity
  8
0
370
    35
390
0
 62
     7
 48
0.05
100
AcDbLine
 10
450.15741
 20
678.650818
 30
0.0
 11
452.15741
 21
678.650818
 31
0.0
210
0.0
220
0.0
230
1.0
  0
LINE
  5
179
100
AcDbEntity
  8
0
370
    35
390
0
 62
     7
 48
0.375
100
AcDbLine
 10
450.15741
 20
663.650818
 30
0.0
 11
450.15741
 21
678.650818
 31
0.0
210
0.0
220
0.0
230
1.0
  0
LINE
  5
17A
100
AcDbEntity
  8
0
370
    35
390
0
 62
     7
 48
0.05
100
AcDbLine
 10
450.15741
 20
713.650818
 30
0.0
 11
452.15741
 21
713.650818
 31
0.0
210
0.0
220
0.0
230
1.0
  0
LINE
  5
17B
100
AcDbEntity
  8
0
370
    35
390
0
 62
     7
 48
0.375
100
AcDbLine
 10
452.15741
 20
713.650818
 30
0.0
 11
452.15741
 21
698.650818
 31
0.0
210
0.0
220
0.0
230
1.0
  0
LINE
  5
17C
100
AcDbEntity
  8
0
370
    35
390
0
 62
     7
 48
0.45
100
AcDbLine
 10
452.15741
 20
698.650818
 30
0.0
 11
470.15741
 21
698.650818
 31
0.0
210
0.0
220
0.0
230
1.0
  0
LINE
  5
17D
100
AcDbEntity
  8
0
370
    35
390
0
 62
     7
 48
0.1
100
AcDbLine
 10
470.15741
 20
698.650818
 30
0.0
 11
470.15741
 21
702.650818
 31
0.0
210
0.0
220
0.0
230
1.0
  0
LINE
  5
17E
100
AcDbEntity
  8
0
370
    35
390
0
 62
     7
100
AcDbLine
 10
470.15741
 20
702.650818
 30
0.0
 11
500.15741
 21
702.650818
 31
0.0
210
0.0
220
0.0
230
1.0
  0
LINE
  5
17F
100
AcDbEntity
  8
0
370
    35
390
0
 62
     7
 48
0.1
100
AcDbLine
 10
500.15741
 20
702.650818
 30
0.0
 11
500.15741
 21
698.650818
 31
0.0
210
0.0
220
0.0
230
1.0
  0
LINE
  5
180
100
AcDbEntity
  8
0
370
    35
390
0
 62
     7
 48
0.45
100
AcDbLine
 10
500.15741
 20
698.650818
 30
0.0
 11
518.15741
 21
698.650818
 31
0.0
210
0.0
220
0.0
230
1.0
  0
LINE
  5
181
100
AcDbEntity
  8
0
370
    35
390
0
 62
     7
 48
0.375
100
AcDbLine
 10
518.15741
 20
698.650818
 30
0.0
 11
518.15741
 21
713.650818
 31
0.0
210
0.0
220
0.0
230
1.0
  0
LINE
  5
182
100
AcDbEntity
  8
0
370
    35
390
0
 62
     7
 48
0.05
100
AcDbLine
 10
518.15741
 20
713.650818
 30
0.0
 11
520.15741
 21
713.650818
 31
0.0
210
0.0
220
0.0
230
1.0
  0
LINE
  5
183
100
AcDbEntity
  8
0
370
    35
390
0
 62
     7
 48
0.375
100
AcDbLine
 10
520.15741
 20
728.650818
 30
0.0
 11
520.15741
 21
713.650818
 31
0.0
210
0.0
220
0.0
230
1.0
  0
LINE
  5
184
100
AcDbEntity
  8
0
370
    35
390
0
 62
     7
 48
0.05
100
AcDbLine
 10
518.15741
 20
728.650818
 30
0.0
 11
520.15741
 21
728.650818
 31
0.0
210
0.0
220
0.0
230
1.0
  0
LINE
  5
185
100
AcDbEntity
  8
0
370
    35
390
0
 62
     7
 48
0.375
100
AcDbLine
 10
518.15741
 20
728.650818
 30
0.0
 11
518.15741
 21
743.650818
 31
0.0
210
0.0
220
0.0
230
1.0
  0
LINE
  5
186
100
AcDbEntity
  8
0
370
    35
390
0
 62
     7
 48
0.45
100
AcDbLine
 10
518.15741
 20
743.650818
 30
0.0
 11
500.15741
 21
743.650818
 31
0.0
210
0.0
220
0.0
230
1.0
  0
LINE
  5
187
100
AcDbEntity
  8
0
370
    35
390
0
 62
     7
 48
0.1
100
AcDbLine
 10
500.15741
 20
747.650818
 30
0.0
 11
500.15741
 21
743.650818
 31
0.0
210
0.0
220
0.0
230
1.0
  0
LINE
  5
188
100
AcDbEntity
  8
0
370
    35
390
0
 62
     7
100
AcDbLine
 10
470.15741
 20
747.650818
 30
0.0
 11
500.15741
 21
747.650818
 31
0.0
210
0.0
220
0.0
230
1.0
  0
LINE
  5
189
100
AcDbEntity
  8
0
370
    35
390
0
 62
     7
 48
0.1
100
AcDbLine
 10
470.15741
 20
743.650818
 30
0.0
 11
470.15741
 21
747.650818
 31
0.0
210
0.0
220
0.0
230
1.0
  0
LINE
  5
18A
100
AcDbEntity
  8
0
370
    35
390
0
 62
     7
 48
0.45
100
AcDbLine
 10
470.15741
 20
743.650818
 30
0.0
 11
452.15741
 21
743.650818
 31
0.0
210
0.0
220
0.0
230
1.0
  0
LINE
  5
18B
100
AcDbEntity
  8
0
370
    35
390
0
 62
     7
 48
0.375
100
AcDbLine
 10
452.15741
 20
728.650818
 30
0.0
 11
452.15741
 21
743.650818
 31
0.0
210
0.0
220
0.0
230
1.0
  0
LINE
  5
18C
100
AcDbEntity
  8
0
370
    35
390
0
 62
     7
 48
0.05
100
AcDbLine
 10
450.15741
 20
728.650818
 30
0.0
 11
452.15741
 21
728.650818
 31
0.0
210
0.0
220
0.0
230
1.0
  0
LINE
  5
18D
100
AcDbEntity
  8
0
370
    35
390
0
 62
     7
 48
0.375
100
AcDbLine
 10
450.15741
 20
713.650818
 30
0.0
 11
450.15741
 21
728.650818
 31
0.0
210
0.0
220
0.0
230
1.0
  0
LINE
  5
18E
100
AcDbEntity
  8
0
370
    35
390
0
 62
     7
 48
0.05
100
AcDbLine
 10
448.425018
 20
657.713257
 30
0.0
 11
446.425018
 21
657.713257
 31
0.0
210
0.0
220
0.0
230
1.0
  0
LINE
  5
18F
100
AcDbEntity
  8
0
370
    35
390
0
 62
     7
 48
0.45
100
AcDbLine
 10
446.425018
 20
657.713257
 30
0.0
 11
446.425018
 21
675.713257
 31
0.0
210
0.0
220
0.0
230
1.0
  0
LINE
  5
190
100
AcDbEntity
  8
0
370
    35
390
0
 62
     7
 48
0.45
100
AcDbLine
 10
428.425018
 20
675.713257
 30
0.0
 11
446.425018
 21
675.713257
 31
0.0
210
0.0
220
0.0
230
1.0
  0
LINE
  5
191
100
AcDbEntity
  8
0
370
    35
390
0
 62
     7
 48
0.05
100
AcDbLine
 10
428.425018
 20
677.713257
 30
0.0
 11
428.425018
 21
675.713257
 31
0.0
210
0.0
220
0.0
230
1.0
  0
LINE
  5
192
100
AcDbEntity
  8
0
370
    35
390
0
 62
     7
100
AcDbLine
 10
398.425018
 20
677.713257
 30
0.0
 11
428.425018
 21
677.713257
 31
0.0
210
0.0
220
0.0
230
1.0
  0
LINE
  5
193
100
AcDbEntity
  8
0
370
    35
390
0
 62
     7
 48
0.05
100
AcDbLine
 10
398.425018
 20
677.713257
 30
0.0
 11
398.425018
 21
675.713257
 31
0.0
210
0.0
220
0.0
230
1.0
  0
LINE
  5
194
100
AcDbEntity
  8
0
370
    35
390
0
 62
     7
 48
0.45
100
AcDbLine
 10
398.425018
 20
675.713257
 30
0.0
 11
380.425018
 21
675.713257
 31
0.0
210
0.0
220
0.0
230
1.0
  0
LINE
  5
195
100
AcDbEntity
  8
0
370
    35
390
0
 62
     7
 48
0.45
100
AcDbLine
 10
380.425018
 20
657.713257
 30
0.0
 11
380.425018
 21
675.713257
 31
0.0
210
0.0
220
0.0
230
1.0
  0
LINE
  5
196
100
AcDbEntity
  8
0
370
    35
390
0
 62
     7
 48
0.05
100
AcDbLine
 10
378.425018
 20
657.713257
 30
0.0
 11
380.425018
 21
657.713257
 31
0.0
210
0.0
220
0.0
230
1.0
  0
LINE
  5
197
100
AcDbEntity
  8
0
370
    35
390
0
 62
     7
100
AcDbLine
 10
378.425018
 20
657.713257
 30
0.0
 11
378.425018
 21
627.713257
 31
0.0
210
0.0
220
0.0
230
1.0
  0
LINE
  5
198
100
AcDbEntity
  8
0
370
    35
390
0
 62
     7
 48
0.05
100
AcDbLine
 10
378.425018
 20
627.713257
 30
0.0
 11
380.425018
 21
627.713257
 31
0.0
210
0.0
220
0.0
230
1.0
  0
LINE
  5
199
100
AcDbEntity
  8
0
370
    35
390
0
 62
     7
100
AcDbLine
 10
380.425018
 20
627.713257
 30
0.0
 11
380.425018
 21
599.713257
 31
0.0
210
0.0
220
0.0
230
1.0
  0
LINE
  5
19A
100
AcDbEntity
  8
0
370
    35
390
0
 62
     7
 48
0.45
100
AcDbLine
 10
380.425018
 20
599.713257
 30
0.0
 11
398.425018
 21
599.713257
 31
0.0
210
0.0
220
0.0
230
1.0
  0
LINE
  5
19B
100
AcDbEntity
  8
0
370
    35
390
0
 62
     7
 48
0.05
100
AcDbLine
 10
398.425018
 20
599.713257
 30
0.0
 11
398.425018
 21
597.713257
 31
0.0
210
0.0
220
0.0
230
1.0
  0
LINE
  5
19C
100
AcDbEntity
  8
0
370
    35
390
0
 62
     7
100
AcDbLine
 10
398.425018
 20
597.713257
 30
0.0
 11
428.425018
 21
597.713257
 31
0.0
210
0.0
220
0.0
230
1.0
  0
LINE
  5
19D
100
AcDbEntity
  8
0
370
    35
390
0
 62
     7
 48
0.05
100
AcDbLine
 10
428.425018
 20
597.713257
 30
0.0
 11
428.425018
 21
599.713257
 31
0.0
210
0.0
220
0.0
230
1.0
  0
LINE
  5
19E
100
AcDbEntity
  8
0
370
    35
390
0
 62
     7
 48
0.45
100
AcDbLine
 10
428.425018
 20
599.713257
 30
0.0
 11
446.425018
 21
599.713257
 31
0.0
210
0.0
220
0.0
230
1.0
  0
LINE
  5
19F
100
AcDbEntity
  8
0
370
    35
390
0
 62
     7
100
AcDbLine
 10
446.425018
 20
627.713257
 30
0.0
 11
446.425018
 21
599.713257
 31
0.0
210
0.0
220
0.0
230
1.0
  0
LINE
  5
1A0
100
AcDbEntity
  8
0
370
    35
390
0
 62
     7
 48
0.05
100
AcDbLine
 10
448.425018
 20
627.713257
 30
0.0
 11
446.425018
 21
627.713257
 31
0.0
210
0.0
220
0.0
230
1.0
  0
LINE
  5
1A1
100
AcDbEntity
  8
0
370
    35
390
0
 62
     7
100
AcDbLine
 10
448.425018
 20
627.713257
 30
0.0
 11
448.425018
 21
657.713257
 31
0.0
210
0.0
220
0.0
230
1.0
  0
CIRCLE
  5
1A2
100
AcDbEntity
  8
0
370
    35
390
0
 62
     7
100
AcDbCircle
 10
397.515106
 20
626.803345
 30
0.0
 40
2.75
210
0.0
220
0.0
230
1.0
  0
CIRCLE
  5
1A3
100
AcDbEntity
  8
0
370
    35
390
0
 62
     7
100
AcDbCircle
 10
429.33493
 20
626.803345
 30
0.0
 40
2.75
210
0.0
220
0.0
230
1.0
  0
CIRCLE
  5
1A4
100
AcDbEntity
  8
0
370
    35
390
0
 62
     7
100
AcDbCircle
 10
429.33493
 20
658.623169
 30
0.0
 40
2.75
210
0.0
220
0.0
230
1.0
  0
CIRCLE
  5
1A5
100
AcDbEntity
  8
0
370
    35
390
0
 62
     7
100
AcDbCircle
 10
397.515106
 20
658.623169
 30
0.0
 40
2.75
210
0.0
220
0.0
230
1.0
  0
CIRCLE
  5
1A6
100
AcDbEntity
  8
0
370
    35
390
0
 62
     7
100
AcDbCircle
 10
388.925018
 20
642.713257
 30
0.0
 40
3.25
210
0.0
220
0.0
230
1.0
  0
CIRCLE
  5
1A7
100
AcDbEntity
  8
0
370
    35
390
0
 62
     7
100
AcDbCircle
 10
413.425018
 20
667.213257
 30
0.0
 40
3.25
210
0.0
220
0.0
230
1.0
  0
CIRCLE
  5
1A8
100
AcDbEntity
  8
0
370
    35
390
0
 62
     7
100
AcDbCircle
 10
437.925018
 20
642.713257
 30
0.0
 40
3.25
210
0.0
220
0.0
230
1.0
  0
CIRCLE
  5
1A9
100
AcDbEntity
  8
0
370
    35
390
0
 62
     7
100
AcDbCircle
 10
413.425018
 20
618.213257
 30
0.0
 40
3.25
210
0.0
220
0.0
230
1.0
  0
LINE
  5
1AA
100
AcDbEntity
  8
0
370
    35
390
0
 62
     7
 48
0.05
100
AcDbLine
 10
377.425018
 20
657.713257
 30
0.0
 11
375.425018
 21
657.713257
 31
0.0
210
0.0
220
0.0
230
1.0
  0
LINE
  5
1AB
100
AcDbEntity
  8
0
370
    35
390
0
 62
     7
 48
0.45
100
AcDbLine
 10
375.425018
 20
657.713257
 30
0.0
 11
375.425018
 21
675.713257
 31
0.0
210
0.0
220
0.0
230
1.0
  0
LINE
  5
1AC
100
AcDbEntity
  8
0
370
    35
390
0
 62
     7
 48
0.45
100
AcDbLine
 10
357.425018
 20
675.713257
 30
0.0
 11
375.425018
 21
675.713257
 31
0.0
210
0.0
220
0.0
230
1.0
  0
LINE
  5
1AD
100
AcDbEntity
  8
0
370
    35
390
0
 62
     7
 48
0.05
100
AcDbLine
 10
357.425018
 20
677.713257
 30
0.0
 11
357.425018
 21
675.713257
 31
0.0
210
0.0
220
0.0
230
1.0
  0
LINE
  5
1AE
100
AcDbEntity
  8
0
370
    35
390
0
 62
     7
100
AcDbLine
 10
327.425018
 20
677.713257
 30
0.0
 11
357.425018
 21
677.713257
 31
0.0
210
0.0
220
0.0
230
1.0
  0
LINE
  5
1AF
100
AcDbEntity
  8
0
370
    35
390
0
 62
     7
 48
0.05
100
AcDbLine
 10
327.425018
 20
677.713257
 30
0.0
 11
327.425018
 21
675.713257
 31
0.0
210
0.0
220
0.0
230
1.0
  0
LINE
  5
1B0
100
AcDbEntity
  8
0
370
    35
390
0
 62
     7
 48
0.45
100
AcDbLine
 10
327.425018
 20
675.713257
 30
0.0
 11
309.425018
 21
675.713257
 31
0.0
210
0.0
220
0.0
230
1.0
  0
LINE
  5
1B1
100
AcDbEntity
  8
0
370
    35
390
0
 62
     7
 48
0.45
100
AcDbLine
 10
309.425018
 20
657.713257
 30
0.0
 11
309.425018
 21
675.713257
 31
0.0
210
0.0
220
0.0
230
1.0
  0
LINE
  5
1B2
100
AcDbEntity
  8
0
370
    35
390
0
 62
     7
 48
0.05
100
AcDbLine
 10
307.425018
 20
657.713257
 30
0.0
 11
309.425018
 21
657.713257
 31
0.0
210
0.0
220
0.0
230
1.0
  0
LINE
  5
1B3
100
AcDbEntity
  8
0
370
    35
390
0
 62
     7
100
AcDbLine
 10
307.425018
 20
657.713257
 30
0.0
 11
307.425018
 21
627.713257
 31
0.0
210
0.0
220
0.0
230
1.0
  0
LINE
  5
1B4
100
AcDbEntity
  8
0
370
    35
390
0
 62
     7
 48
0.05
100
AcDbLine
 10
307.425018
 20
627.713257
 30
0.0
 11
309.425018
 21
627.713257
 31
0.0
210
0.0
220
0.0
230
1.0
  0
LINE
  5
1B5
100
AcDbEntity
  8
0
370
    35
390
0
 62
     7
100
AcDbLine
 10
309.425018
 20
627.713257
 30
0.0
 11
309.425018
 21
599.713257
 31
0.0
210
0.0
220
0.0
230
1.0
  0
LINE
  5
1B6
100
AcDbEntity
  8
0
370
    35
390
0
 62
     7
 48
0.45
100
AcDbLine
 10
309.425018
 20
599.713257
 30
0.0
 11
327.425018
 21
599.713257
 31
0.0
210
0.0
220
0.0
230
1.0
  0
LINE
  5
1B7
100
AcDbEntity
  8
0
370
    35
390
0
 62
     7
 48
0.05
100
AcDbLine
 10
327.425018
 20
599.713257
 30
0.0
 11
327.425018
 21
597.713257
 31
0.0
210
0.0
220
0.0
230
1.0
  0
LINE
  5
1B8
100
AcDbEntity
  8
0
370
    35
390
0
 62
     7
100
AcDbLine
 10
327.425018
 20
597.713257
 30
0.0
 11
357.425018
 21
597.713257
 31
0.0
210
0.0
220
0.0
230
1.0
  0
LINE
  5
1B9
100
AcDbEntity
  8
0
370
    35
390
0
 62
     7
 48
0.05
100
AcDbLine
 10
357.425018
 20
597.713257
 30
0.0
 11
357.425018
 21
599.713257
 31
0.0
210
0.0
220
0.0
230
1.0
  0
LINE
  5
1BA
100
AcDbEntity
  8
0
370
    35
390
0
 62
     7
 48
0.45
100
AcDbLine
 10
357.425018
 20
599.713257
 30
0.0
 11
375.425018
 21
599.713257
 31
0.0
210
0.0
220
0.0
230
1.0
  0
LINE
  5
1BB
100
AcDbEntity
  8
0
370
    35
390
0
 62
     7
100
AcDbLine
 10
375.425018
 20
627.713257
 30
0.0
 11
375.425018
 21
599.713257
 31
0.0
210
0.0
220
0.0
230
1.0
  0
LINE
  5
1BC
100
AcDbEntity
  8
0
370
    35
390
0
 62
     7
 48
0.05
100
AcDbLine
 10
377.425018
 20
627.713257
 30
0.0
 11
375.425018
 21
627.713257
 31
0.0
210
0.0
220
0.0
230
1.0
  0
LINE
  5
1BD
100
AcDbEntity
  8
0
370
    35
390
0
 62
     7
100
AcDbLine
 10
377.425018
 20
627.713257
 30
0.0
 11
377.425018
 21
657.713257
 31
0.0
210
0.0
220
0.0
230
1.0
  0
CIRCLE
  5
1BE
100
AcDbEntity
  8
0
370
    35
390
0
 62
     7
100
AcDbCircle
 10
326.515106
 20
626.803345
 30
0.0
 40
2.75
210
0.0
220
0.0
230
1.0
  0
CIRCLE
  5
1BF
100
AcDbEntity
  8
0
370
    35
390
0
 62
     7
100
AcDbCircle
 10
358.33493
 20
626.803345
 30
0.0
 40
2.75
210
0.0
220
0.0
230
1.0
  0
CIRCLE
  5
1C0
100
AcDbEntity
  8
0
370
    35
390
0
 62
     7
100
AcDbCircle
 10
358.33493
 20
658.623169
 30
0.0
 40
2.75
210
0.0
220
0.0
230
1.0
  0
CIRCLE
  5
1C1
100
AcDbEntity
  8
0
370
    35
390
0
 62
     7
100
AcDbCircle
 10
326.515106
 20
658.623169
 30
0.0
 40
2.75
210
0.0
220
0.0
230
1.0
  0
CIRCLE
  5
1C2
100
AcDbEntity
  8
0
370
    35
390
0
 62
     7
100
AcDbCircle
 10
317.925018
 20
642.713257
 30
0.0
 40
3.25
210
0.0
220
0.0
230
1.0
  0
CIRCLE
  5
1C3
100
AcDbEntity
  8
0
370
    35
390
0
 62
     7
100
AcDbCircle
 10
342.425018
 20
667.213257
 30
0.0
 40
3.25
210
0.0
220
0.0
230
1.0
  0
CIRCLE
  5
1C4
100
AcDbEntity
  8
0
370
    35
390
0
 62
     7
100
AcDbCircle
 10
366.925018
 20
642.713257
 30
0.0
 40
3.25
210
0.0
220
0.0
230
1.0
  0
CIRCLE
  5
1C5
100
AcDbEntity
  8
0
370
    35
390
0
 62
     7
100
AcDbCircle
 10
342.425018
 20
618.213257
 30
0.0
 40
3.25
210
0.0
220
0.0
230
1.0
  0
LINE
  5
1C6
100
AcDbEntity
  8
0
370
    35
390
0
 62
     7
 48
0.375
100
AcDbLine
 10
274.993591
 20
718.904236
 30
0.0
 11
274.993591
 21
733.904236
 31
0.0
210
0.0
220
0.0
230
1.0
  0
LINE
  5
1C7
100
AcDbEntity
  8
0
370
    35
390
0
 62
     7
 48
0.05
100
AcDbLine
 10
274.993591
 20
733.904236
 30
0.0
 11
272.993591
 21
733.904236
 31
0.0
210
0.0
220
0.0
230
1.0
  0
LINE
  5
1C8
100
AcDbEntity
  8
0
370
    35
390
0
 62
     7
 48
0.375
100
AcDbLine
 10
272.993591
 20
733.904236
 30
0.0
 11
272.993591
 21
748.904236
 31
0.0
210
0.0
220
0.0
230
1.0
  0
LINE
  5
1C9
100
AcDbEntity
  8
0
370
    35
390
0
 62
     7
100
AcDbLine
 10
272.993591
 20
748.904236
 30
0.0
 11
196.993591
 21
748.904236
 31
0.0
210
0.0
220
0.0
230
1.0
  0
LINE
  5
1CA
100
AcDbEntity
  8
0
370
    35
390
0
 62
     7
100
AcDbLine
 10
196.993591
 20
728.904236
 30
0.0
 11
196.993591
 21
748.904236
 31
0.0
210
0.0
220
0.0
230
1.0
  0
LINE
  5
1CB
100
AcDbEntity
  8
0
370
    35
390
0
 62
     7
 48
0.05
100
AcDbLine
 10
194.993591
 20
728.904236
 30
0.0
 11
196.993591
 21
728.904236
 31
0.0
210
0.0
220
0.0
230
1.0
  0
LINE
  5
1CC
100
AcDbEntity
  8
0
370
    35
390
0
 62
     7
100
AcDbLine
 10
194.993591
 20
748.904236
 30
0.0
 11
194.993591
 21
728.904236
 31
0.0
210
0.0
220
0.0
230
1.0
  0
LINE
  5
1CD
100
AcDbEntity
  8
0
370
    35
390
0
 62
     7
 48
0.25
100
AcDbLine
 10
194.993591
 20
748.904236
 30
0.0
 11
184.993591
 21
748.904236
 31
0.0
210
0.0
220
0.0
230
1.0
  0
LINE
  5
1CE
100
AcDbEntity
  8
0
370
    35
390
0
 62
     7
 48
0.05
100
AcDbLine
 10
184.993591
 20
748.904236
 30
0.0
 11
184.993591
 21
746.904236
 31
0.0
210
0.0
220
0.0
230
1.0
  0
LINE
  5
1CF
100
AcDbEntity
  8
0
370
    35
390
0
 62
     7
 48
0.25
100
AcDbLine
 10
184.993591
 20
746.904236
 30
0.0
 11
174.993591
 21
746.904236
 31
0.0
210
0.0
220
0.0
230
1.0
  0
LINE
  5
1D0
100
AcDbEntity
  8
0
370
    35
390
0
 62
     7
 48
0.05
100
AcDbLine
 10
174.993591
 20
746.904236
 30
0.0
 11
174.993591
 21
748.904236
 31
0.0
210
0.0
220
0.0
230
1.0
  0
LINE
  5
1D1
100
AcDbEntity
  8
0
370
    35
390
0
 62
     7
 48
0.25
100
AcDbLine
 10
174.993591
 20
748.904236
 30
0.0
 11
164.993591
 21
748.904236
 31
0.0
210
0.0
220
0.0
230
1.0
  0
LINE
  5
1D2
100
AcDbEntity
  8
0
370
    35
390
0
 62
     7
100
AcDbLine
 10
164.993591
 20
748.904236
 30
0.0
 11
164.993591
 21
668.904236
 31
0.0
210
0.0
220
0.0
230
1.0
  0
LINE
  5
1D3
100
AcDbEntity
  8
0
370
    35
390
0
 62
     7
 48
0.05
100
AcDbLine
 10
164.993591
 20
668.904236
 30
0.0
 11
166.993591
 21
668.904236
 31
0.0
210
0.0
220
0.0
230
1.0
  0
LINE
  5
1D4
100
AcDbEntity
  8
0
370
    35
390
0
 62
     7
100
AcDbLine
 10
166.993591
 20
668.904236
 30
0.0
 11
166.993591
 21
588.904236
 31
0.0
210
0.0
220
0.0
230
1.0
  0
LINE
  5
1D5
100
AcDbEntity
  8
0
370
    35
390
0
 62
     7
 48
0.05
100
AcDbLine
 10
166.993591
 20
588.904236
 30
0.0
 11
164.993591
 21
588.904236
 31
0.0
210
0.0
220
0.0
230
1.0
  0
LINE
  5
1D6
100
AcDbEntity
  8
0
370
    35
390
0
 62
     7
100
AcDbLine
 10
164.993591
 20
588.904236
 30
0.0
 11
164.993591
 21
448.904236
 31
0.0
210
0.0
220
0.0
230
1.0
  0
LINE
  5
1D7
100
AcDbEntity
  8
0
370
    35
390
0
 62
     7
 48
0.25
100
AcDbLine
 10
174.993591
 20
448.904236
 30
0.0
 11
164.993591
 21
448.904236
 31
0.0
210
0.0
220
0.0
230
1.0
  0
LINE
  5
1D8
100
AcDbEntity
  8
0
370
    35
390
0
 62
     7
 48
0.05
100
AcDbLine
 10
174.993591
 20
448.904236
 30
0.0
 11
174.993591
 21
450.904236
 31
0.0
210
0.0
220
0.0
230
1.0
  0
LINE
  5
1D9
100
AcDbEntity
  8
0
370
    35
390
0
 62
     7
 48
0.25
100
AcDbLine
 10
184.993591
 20
450.904236
 30
0.0
 11
174.993591
 21
450.904236
 31
0.0
210
0.0
220
0.0
230
1.0
  0
LINE
  5
1DA
100
AcDbEntity
  8
0
370
    35
390
0
 62
     7
 48
0.05
100
AcDbLine
 10
184.993591
 20
448.904236
 30
0.0
 11
184.993591
 21
450.904236
 31
0.0
210
0.0
220
0.0
230
1.0
  0
LINE
  5
1DB
100
AcDbEntity
  8
0
370
    35
390
0
 62
     7
 48
0.25
100
AcDbLine
 10
194.993591
 20
448.904236
 30
0.0
 11
184.993591
 21
448.904236
 31
0.0
210
0.0
220
0.0
230
1.0
  0
LINE
  5
1DC
100
AcDbEntity
  8
0
370
    35
390
0
 62
     7
100
AcDbLine
 10
194.993591
 20
548.904236
 30
0.0
 11
194.993591
 21
448.904236
 31
0.0
210
0.0
220
0.0
230
1.0
  0
LINE
  5
1DD
100
AcDbEntity
  8
0
370
    35
390
0
 62
     7
 48
0.05
100
AcDbLine
 10
196.993591
 20
548.904236
 30
0.0
 11
194.993591
 21
548.904236
 31
0.0
210
0.0
220
0.0
230
1.0
  0
LINE
  5
1DE
100
AcDbEntity
  8
0
370
    35
390
0
 62
     7
100
AcDbLine
 10
196.993591
 20
623.904236
 30
0.0
 11
196.993591
 21
548.904236
 31
0.0
210
0.0
220
0.0
230
1.0
  0
LINE
  5
1DF
100
AcDbEntity
  8
0
370
    35
390
0
 62
     7
 48
0.05
100
AcDbLine
 10
194.993591
 20
623.904236
 30
0.0
 11
196.993591
 21
623.904236
 31
0.0
210
0.0
220
0.0
230
1.0
  0
LINE
  5
1E0
100
AcDbEntity
  8
0
370
    35
390
0
 62
     7
100
AcDbLine
 10
194.993591
 20
623.904236
 30
0.0
 11
194.993591
 21
655.904236
 31
0.0
210
0.0
220
0.0
230
1.0
  0
LINE
  5
1E1
100
AcDbEntity
  8
0
370
    35
390
0
 62
     7
 48
0.088046
100
AcDbLine
 10
198.515411
 20
655.904236
 30
0.0
 11
194.993591
 21
655.904236
 31
0.0
210
0.0
220
0.0
230
1.0
  0
LINE
  5
1E2
100
AcDbEntity
  8
0
370
    35
390
0
 62
     7
100
AcDbLine
 10
272.993591
 20
698.904236
 30
0.0
 11
198.515411
 21
655.904236
 31
0.0
210
0.0
220
0.0
230
1.0
  0
LINE
  5
1E3
100
AcDbEntity
  8
0
370
    35
390
0
 62
     7
100
AcDbLine
 10
272.993591
 20
718.904236
 30
0.0
 11
272.993591
 21
698.904236
 31
0.0
210
0.0
220
0.0
230
1.0
  0
LINE
  5
1E4
100
AcDbEntity
  8
0
370
    35
390
0
 62
     7
 48
0.05
100
AcDbLine
 10
274.993591
 20
718.904236
 30
0.0
 11
272.993591
 21
718.904236
 31
0.0
210
0.0
220
0.0
230
1.0
  0
LINE
  5
1E5
100
AcDbEntity
  8
0
370
    35
390
0
 62
     7
100
AcDbLine
 10
254.993591
 20
698.904236
 30
0.0
 11
224.993591
 21
698.904236
 31
0.0
210
0.0
220
0.0
230
1.0
  0
LINE
  5
1E6
100
AcDbEntity
  8
0
370
    35
390
0
 62
     7
 48
0.1
100
AcDbLine
 10
224.993591
 20
698.904236
 30
0.0
 11
224.993591
 21
702.904236
 31
0.0
210
0.0
220
0.0
230
1.0
  0
LINE
  5
1E7
100
AcDbEntity
  8
0
370
    35
390
0
 62
     7
100
AcDbLine
 10
224.993591
 20
702.904236
 30
0.0
 11
254.993591
 21
702.904236
 31
0.0
210
0.0
220
0.0
230
1.0
  0
LINE
  5
1E8
100
AcDbEntity
  8
0
370
    35
390
0
 62
     7
 48
0.1
100
AcDbLine
 10
254.993591
 20
702.904236
 30
0.0
 11
254.993591
 21
698.904236
 31
0.0
210
0.0
220
0.0
230
1.0
  0
LINE
  5
1E9
100
AcDbEntity
  8
0
370
    35
390
0
 62
     7
 48
0.25
100
AcDbLine
 10
184.993591
 20
578.904236
 30
0.0
 11
174.993591
 21
578.904236
 31
0.0
210
0.0
220
0.0
230
1.0
  0
LINE
  5
1EA
100
AcDbEntity
  8
0
370
    35
390
0
 62
     7
100
AcDbLine
 10
174.993591
 20
578.904236
 30
0.0
 11
174.993591
 21
628.904236
 31
0.0
210
0.0
220
0.0
230
1.0
  0
LINE
  5
1EB
100
AcDbEntity
  8
0
370
    35
390
0
 62
     7
 48
0.25
100
AcDbLine
 10
174.993591
 20
628.904236
 30
0.0
 11
184.993591
 21
628.904236
 31
0.0
210
0.0
220
0.0
230
1.0
  0
LINE
  5
1EC
100
AcDbEntity
  8
0
370
    35
390
0
 62
     7
100
AcDbLine
 10
184.993591
 20
628.904236
 30
0.0
 11
184.993591
 21
578.904236
 31
0.0
210
0.0
220
0.0
230
1.0
  0
LINE
  5
1ED
100
AcDbEntity
  8
0
370
    35
390
0
 62
     7
 48
0.375
100
AcDbLine
 10
195.991135
 20
478.92218
 30
0.0
 11
195.991135
 21
463.92218
 31
0.0
210
0.0
220
0.0
230
1.0
  0
LINE
  5
1EE
100
AcDbEntity
  8
0
370
    35
390
0
 62
     7
 48
0.05
100
AcDbLine
 10
195.991135
 20
463.92218
 30
0.0
 11
197.991135
 21
463.92218
 31
0.0
210
0.0
220
0.0
230
1.0
  0
LINE
  5
1EF
100
AcDbEntity
  8
0
370
    35
390
0
 62
     7
 48
0.375
100
AcDbLine
 10
197.991135
 20
463.92218
 30
0.0
 11
197.991135
 21
448.92218
 31
0.0
210
0.0
220
0.0
230
1.0
  0
LINE
  5
1F0
100
AcDbEntity
  8
0
370
    35
390
0
 62
     7
100
AcDbLine
 10
197.991135
 20
448.92218
 30
0.0
 11
273.99115
 21
448.92218
 31
0.0
210
0.0
220
0.0
230
1.0
  0
LINE
  5
1F1
100
AcDbEntity
  8
0
370
    35
390
0
 62
     7
100
AcDbLine
 10
273.99115
 20
468.92218
 30
0.0
 11
273.99115
 21
448.92218
 31
0.0
210
0.0
220
0.0
230
1.0
  0
LINE
  5
1F2
100
AcDbEntity
  8
0
370
    35
390
0
 62
     7
 48
0.05
100
AcDbLine
 10
275.99115
 20
468.92218
 30
0.0
 11
273.99115
 21
468.92218
 31
0.0
210
0.0
220
0.0
230
1.0
  0
LINE
  5
1F3
100
AcDbEntity
  8
0
370
    35
390
0
 62
     7
100
AcDbLine
 10
275.99115
 20
448.92218
 30
0.0
 11
275.99115
 21
468.92218
 31
0.0
210
0.0
220
0.0
230
1.0
  0
LINE
  5
1F4
100
AcDbEntity
  8
0
370
    35
390
0
 62
     7
 48
0.25
100
AcDbLine
 10
275.99115
 20
448.92218
 30
0.0
 11
285.99115
 21
448.92218
 31
0.0
210
0.0
220
0.0
230
1.0
  0
LINE
  5
1F5
100
AcDbEntity
  8
0
370
    35
390
0
 62
     7
 48
0.05
100
AcDbLine
 10
285.99115
 20
448.92218
 30
0.0
 11
285.99115
 21
450.92218
 31
0.0
210
0.0
220
0.0
230
1.0
  0
LINE
  5
1F6
100
AcDbEntity
  8
0
370
    35
390
0
 62
     7
 48
0.25
100
AcDbLine
 10
285.99115
 20
450.92218
 30
0.0
 11
295.99115
 21
450.92218
 31
0.0
210
0.0
220
0.0
230
1.0
  0
LINE
  5
1F7
100
AcDbEntity
  8
0
370
    35
390
0
 62
     7
 48
0.05
100
AcDbLine
 10
295.99115
 20
450.92218
 30
0.0
 11
295.99115
 21
448.92218
 31
0.0
210
0.0
220
0.0
230
1.0
  0
LINE
  5
1F8
100
AcDbEntity
  8
0
370
    35
390
0
 62
     7
 48
0.25
100
AcDbLine
 10
295.99115
 20
448.92218
 30
0.0
 11
305.99115
 21
448.92218
 31
0.0
210
0.0
220
0.0
230
1.0
  0
LINE
  5
1F9
100
AcDbEntity
  8
0
370
    35
390
0
 62
     7
100
AcDbLine
 10
305.99115
 20
448.92218
 30
0.0
 11
305.99115
 21
528.92218
 31
0.0
210
0.0
220
0.0
230
1.0
  0
LINE
  5
1FA
100
AcDbEntity
  8
0
370
    35
390
0
 62
     7
 48
0.05
100
AcDbLine
 10
305.99115
 20
528.92218
 30
0.0
 11
303.99115
 21
528.92218
 31
0.0
210
0.0
220
0.0
230
1.0
  0
LINE
  5
1FB
100
AcDbEntity
  8
0
370
    35
390
0
 62
     7
100
AcDbLine
 10
303.99115
 20
528.92218
 30
0.0
 11
303.99115
 21
608.92218
 31
0.0
210
0.0
220
0.0
230
1.0
  0
LINE
  5
1FC
100
AcDbEntity
  8
0
370
    35
390
0
 62
     7
 48
0.05
100
AcDbLine
 10
303.99115
 20
608.92218
 30
0.0
 11
305.99115
 21
608.92218
 31
0.0
210
0.0
220
0.0
230
1.0
  0
LINE
  5
1FD
100
AcDbEntity
  8
0
370
    35
390
0
 62
     7
100
AcDbLine
 10
305.99115
 20
608.92218
 30
0.0
 11
305.99115
 21
748.92218
 31
0.0
210
0.0
220
0.0
230
1.0
  0
LINE
  5
1FE
100
AcDbEntity
  8
0
370
    35
390
0
 62
     7
 48
0.25
100
AcDbLine
 10
295.99115
 20
748.92218
 30
0.0
 11
305.99115
 21
748.92218
 31
0.0
210
0.0
220
0.0
230
1.0
  0
LINE
  5
1FF
100
AcDbEntity
  8
0
370
    35
390
0
 62
     7
 48
0.05
100
AcDbLine
 10
295.99115
 20
748.92218
 30
0.0
 11
295.99115
 21
746.92218
 31
0.0
210
0.0
220
0.0
230
1.0
  0
LINE
  5
200
100
AcDbEntity
  8
0
370
    35
390
0
 62
     7
 48
0.25
100
AcDbLine
 10
285.99115
 20
746.92218
 30
0.0
 11
295.99115
 21
746.92218
 31
0.0
210
0.0
220
0.0
230
1.0
  0
LINE
  5
201
100
AcDbEntity
  8
0
370
    35
390
0
 62
     7
 48
0.05
100
AcDbLine
 10
285.99115
 20
748.92218
 30
0.0
 11
285.99115
 21
746.92218
 31
0.0
210
0.0
220
0.0
230
1.0
  0
LINE
  5
202
100
AcDbEntity
  8
0
370
    35
390
0
 62
     7
 48
0.25
100
AcDbLine
 10
275.99115
 20
748.92218
 30
0.0
 11
285.99115
 21
748.92218
 31
0.0
210
0.0
220
0.0
230
1.0
  0
LINE
  5
203
100
AcDbEntity
  8
0
370
    35
390
0
 62
     7
100
AcDbLine
 10
275.99115
 20
648.92218
 30
0.0
 11
275.99115
 21
748.92218
 31
0.0
210
0.0
220
0.0
230
1.0
  0
LINE
  5
204
100
AcDbEntity
  8
0
370
    35
390
0
 62
     7
 48
0.05
100
AcDbLine
 10
273.99115
 20
648.92218
 30
0.0
 11
275.99115
 21
648.92218
 31
0.0
210
0.0
220
0.0
230
1.0
  0
LINE
  5
205
100
AcDbEntity
  8
0
370
    35
390
0
 62
     7
100
AcDbLine
 10
273.99115
 20
573.92218
 30
0.0
 11
273.99115
 21
648.92218
 31
0.0
210
0.0
220
0.0
230
1.0
  0
LINE
  5
206
100
AcDbEntity
  8
0
370
    35
390
0
 62
     7
 48
0.05
100
AcDbLine
 10
275.99115
 20
573.92218
 30
0.0
 11
273.99115
 21
573.92218
 31
0.0
210
0.0
220
0.0
230
1.0
  0
LINE
  5
207
100
AcDbEntity
  8
0
370
    35
390
0
 62
     7
100
AcDbLine
 10
275.99115
 20
573.92218
 30
0.0
 11
275.99115
 21
541.92218
 31
0.0
210
0.0
220
0.0
230
1.0
  0
LINE
  5
208
100
AcDbEntity
  8
0
370
    35
390
0
 62
     7
 48
0.088046
100
AcDbLine
 10
272.46933
 20
541.92218
 30
0.0
 11
275.99115
 21
541.92218
 31
0.0
210
0.0
220
0.0
230
1.0
  0
LINE
  5
209
100
AcDbEntity
  8
0
370
    35
390
0
 62
     7
100
AcDbLine
 10
197.991135
 20
498.92218
 30
0.0
 11
272.46933
 21
541.92218
 31
0.0
210
0.0
220
0.0
230
1.0
  0
LINE
  5
20A
100
AcDbEntity
  8
0
370
    35
390
0
 62
     7
100
AcDbLine
 10
197.991135
 20
478.92218
 30
0.0
 11
197.991135
 21
498.92218
 31
0.0
210
0.0
220
0.0
230
1.0
  0
LINE
  5
20B
100
AcDbEntity
  8
0
370
    35
390
0
 62
     7
 48
0.05
100
AcDbLine
 10
195.991135
 20
478.92218
 30
0.0
 11
197.991135
 21
478.92218
 31
0.0
210
0.0
220
0.0
230
1.0
  0
LINE
  5
20C
100
AcDbEntity
  8
0
370
    35
390
0
 62
     7
100
AcDbLine
 10
215.991135
 20
498.92218
 30
0.0
 11
245.991135
 21
498.92218
 31
0.0
210
0.0
220
0.0
230
1.0
  0
LINE
  5
20D
100
AcDbEntity
  8
0
370
    35
390
0
 62
     7
 48
0.1
100
AcDbLine
 10
245.991135
 20
498.92218
 30
0.0
 11
245.991135
 21
494.92218
 31
0.0
210
0.0
220
0.0
230
1.0
  0
LINE
  5
20E
100
AcDbEntity
  8
0
370
    35
390
0
 62
     7
100
AcDbLine
 10
245.991135
 20
494.92218
 30
0.0
 11
215.991135
 21
494.92218
 31
0.0
210
0.0
220
0.0
230
1.0
  0
LINE
  5
20F
100
AcDbEntity
  8
0
370
    35
390
0
 62
     7
 48
0.1
100
AcDbLine
 10
215.991135
 20
494.92218
 30
0.0
 11
215.991135
 21
498.92218
 31
0.0
210
0.0
220
0.0
230
1.0
  0
LINE
  5
210
100
AcDbEntity
  8
0
370
    35
390
0
 62
     7
 48
0.25
100
AcDbLine
 10
285.99115
 20
618.92218
 30
0.0
 11
295.99115
 21
618.92218
 31
0.0
210
0.0
220
0.0
230
1.0
  0
LINE
  5
211
100
AcDbEntity
  8
0
370
    35
390
0
 62
     7
100
AcDbLine
 10
295.99115
 20
618.92218
 30
0.0
 11
295.99115
 21
568.92218
 31
0.0
210
0.0
220
0.0
230
1.0
  0
LINE
  5
212
100
AcDbEntity
  8
0
370
    35
390
0
 62
     7
 48
0.25
100
AcDbLine
 10
295.99115
 20
568.92218
 30
0.0
 11
285.99115
 21
568.92218
 31
0.0
210
0.0
220
0.0
230
1.0
  0
LINE
  5
213
100
AcDbEntity
  8
0
370
    35
390
0
 62
     7
100
AcDbLine
 10
285.99115
 20
568.92218
 30
0.0
 11
285.99115
 21
618.92218
 31
0.0
210
0.0
220
0.0
230
1.0
  0
LINE
  5
214
100
AcDbEntity
  8
0
370
    35
390
0
 62
     7
100
AcDbLine
 10
378.436005
 20
522.159485
 30
0.0
 11
378.436005
 21
502.159485
 31
0.0
210
0.0
220
0.0
230
1.0
  0
LINE
  5
215
100
AcDbEntity
  8
0
370
    35
390
0
 62
     7
 48
0.05
100
AcDbLine
 10
378.436005
 20
502.159485
 30
0.0
 11
380.436005
 21
502.159485
 31
0.0
210
0.0
220
0.0
230
1.0
  0
LINE
  5
216
100
AcDbEntity
  8
0
370
    35
390
0
 62
     7
 48
0.375
100
AcDbLine
 10
380.436005
 20
502.159485
 30
0.0
 11
380.436005
 21
487.159485
 31
0.0
210
0.0
220
0.0
230
1.0
  0
LINE
  5
217
100
AcDbEntity
  8
0
370
    35
390
0
 62
     7
 48
0.05
100
AcDbLine
 10
378.436005
 20
487.159485
 30
0.0
 11
380.436005
 21
487.159485
 31
0.0
210
0.0
220
0.0
230
1.0
  0
LINE
  5
218
100
AcDbEntity
  8
0
370
    35
390
0
 62
     7
 48
0.375
100
AcDbLine
 10
378.436005
 20
487.159485
 30
0.0
 11
378.436005
 21
472.159485
 31
0.0
210
0.0
220
0.0
230
1.0
  0
LINE
  5
219
100
AcDbEntity
  8
0
370
    35
390
0
 62
     7
100
AcDbLine
 10
448.436005
 20
472.159485
 30
0.0
 11
378.436005
 21
472.159485
 31
0.0
210
0.0
220
0.0
230
1.0
  0
LINE
  5
21A
100
AcDbEntity
  8
0
370
    35
390
0
 62
     7
 48
0.375
100
AcDbLine
 10
448.436005
 20
472.159485
 30
0.0
 11
448.436005
 21
487.159485
 31
0.0
210
0.0
220
0.0
230
1.0
  0
LINE
  5
21B
100
AcDbEntity
  8
0
370
    35
390
0
 62
     7
 48
0.05
100
AcDbLine
 10
448.436005
 20
487.159485
 30
0.0
 11
446.436005
 21
487.159485
 31
0.0
210
0.0
220
0.0
230
1.0
  0
LINE
  5
21C
100
AcDbEntity
  8
0
370
    35
390
0
 62
     7
 48
0.375
100
AcDbLine
 10
446.436005
 20
502.159485
 30
0.0
 11
446.436005
 21
487.159485
 31
0.0
210
0.0
220
0.0
230
1.0
  0
LINE
  5
21D
100
AcDbEntity
  8
0
370
    35
390
0
 62
     7
 48
0.05
100
AcDbLine
 10
448.436005
 20
502.159485
 30
0.0
 11
446.436005
 21
502.159485
 31
0.0
210
0.0
220
0.0
230
1.0
  0
LINE
  5
21E
100
AcDbEntity
  8
0
370
    35
390
0
 62
     7
100
AcDbLine
 10
448.436005
 20
502.159485
 30
0.0
 11
448.436005
 21
522.159485
 31
0.0
210
0.0
220
0.0
230
1.0
  0
LINE
  5
21F
100
AcDbEntity
  8
0
370
    35
390
0
 62
     7
100
AcDbLine
 10
428.436005
 20
522.159485
 30
0.0
 11
448.436005
 21
522.159485
 31
0.0
210
0.0
220
0.0
230
1.0
  0
LINE
  5
220
100
AcDbEntity
  8
0
370
    35
390
0
 62
     7
 48
0.1
100
AcDbLine
 10
428.436005
 20
518.159485
 30
0.0
 11
428.436005
 21
522.159485
 31
0.0
210
0.0
220
0.0
230
1.0
  0
LINE
  5
221
100
AcDbEntity
  8
0
370
    35
390
0
 62
     7
100
AcDbLine
 10
398.436005
 20
518.159485
 30
0.0
 11
428.436005
 21
518.159485
 31
0.0
210
0.0
220
0.0
230
1.0
  0
LINE
  5
222
100
AcDbEntity
  8
0
370
    35
390
0
 62
     7
 48
0.1
100
AcDbLine
 10
398.436005
 20
522.159485
 30
0.0
 11
398.436005
 21
518.159485
 31
0.0
210
0.0
220
0.0
230
1.0
  0
LINE
  5
223
100
AcDbEntity
  8
0
370
    35
390
0
 62
     7
100
AcDbLine
 10
378.436005
 20
522.159485
 30
0.0
 11
398.436005
 21
522.159485
 31
0.0
210
0.0
220
0.0
230
1.0
  0
ENDSEC
  0
SECTION
  2
OBJECTS
  0
DICTIONARY
  5
19
100
AcDbDictionary
280
     0
281
     1
  3
ACAD_GROUP
350
1A
  3
ACAD_MLINESTYLE
350
1B
  3
ACAD_LAYOUT
350
1E
  3
ACAD_PLOTSETTINGS
350
22
  3
ACAD_PLOTSTYLENAME
350
1F
  3
ACAD_WIPEOUT_VARS
350
23
  0
DICTIONARY
  5
1A
102
{ACAD_REACTORS
330
19
102
}
100
AcDbDictionary
280
     0
281
     1
  0
DICTIONARY
  5
1B
102
{ACAD_REACTORS
330
19
102
}
100
AcDbDictionary
280
     0
281
     1
  3
Standard
350
1C
  0
MLINESTYLE
  5
1C
102
{ACAD_REACTORS
330
1B
102
}
100
AcDbMlineStyle
  2
Standard
 70
     0
  3

 62
     0
 51
90.0
 52
90.0
 71
     2
 49
0.5
 62
   256
  6
ByLayer
 49
-0.5
 62
   256
  6
ByLayer
  0
ACDBDICTIONARYWDFLT
  5
1F
102
{ACAD_REACTORS
330
19
102
}
100
AcDbDictionary
281
     1
  3
Normal
350
1D
100
AcDbDictionaryWithDefault
340
1D
  0
ACDBPLACEHOLDER
  5
1D
102
{ACAD_REACTORS
330
1F
102
}
  0
LAYOUT
  5
20
102
{ACAD_REACTORS
330
1E
102
}
100
AcDbPlotSettings
  1

  2

  4

  6

 40
0.0
 41
0.0
 42
0.0
 43
0.0
 44
0.0
 45
0.0
 46
0.0
 47
0.0
 48
0.0
 49
0.0
140
0.0
141
0.0
142
1.0
143
1.0
 70
  1024
 72
     0
 73
     0
 74
     0
  7

 75
     0
147
1.0
148
0.0
149
0.0
100
AcDbLayout
  1
Model
 70
     0
 71
     0
 10
0.0
 20
0.0
 11
0.0
 21
0.0
 12
0.0
 22
0.0
 32
0.0
 14
0.0
 24
0.0
 34
0.0
 15
0.0
 25
0.0
 35
0.0
146
0.0
 13
0.0
 23
0.0
 33
0.0
 16
0.0
 26
0.0
 36
0.0
 17
0.0
 27
0.0
 37
0.0
 76
     0
330
A
331
0
345
0
346
0
  0
LAYOUT
  5
21
102
{ACAD_REACTORS
330
1E
102
}
100
AcDbPlotSettings
  1

  2

  4

  6

 40
0.0
 41
0.0
 42
0.0
 43
0.0
 44
0.0
 45
0.0
 46
0.0
 47
0.0
 48
0.0
 49
0.0
140
0.0
141
0.0
142
1.0
143
1.0
 70
     0
 72
     0
 73
     0
 74
     0
  7

 75
     0
147
1.0
148
0.0
149
0.0
100
AcDbLayout
  1
Layout1
 70
     0
 71
     0
 10
0.0
 20
0.0
 11
0.0
 21
0.0
 12
0.0
 22
0.0
 32
0.0
 14
0.0
 24
0.0
 34
0.0
 15
0.0
 25
0.0
 35
0.0
146
0.0
 13
0.0
 23
0.0
 33
0.0
 16
0.0
 26
0.0
 36
0.0
 17
0.0
 27
0.0
 37
0.0
 76
     0
330
B
331
0
345
0
346
0
  0
DICTIONARY
  5
1E
102
{ACAD_REACTORS
330
19
102
}
100
AcDbDictionary
280
     0
281
     1
  3
Layout1
350
21
  3
Model
350
20
  0
DICTIONARY
  5
22
102
{ACAD_REACTORS
330
19
102
}
100
AcDbDictionary
280
     0
281
     1
  0
WIPEOUTVARIABLES
  5
23
100
AcDbWipeoutVariables
 70
     1
  0
ENDSEC
  0
EOF
